<svg width="573" height="506" viewBox="0 0 573 506" fill="none" xmlns="http://www.w3.org/2000/svg">
<path d="M343.157 265.821L346.802 259.948L344.983 258.834C344.726 258.671 344.519 258.44 344.384 258.167C344.25 257.894 344.194 257.59 344.222 257.287C344.254 256.943 344.264 256.598 344.252 256.253C344.246 255.95 344.322 255.65 344.474 255.387C344.626 255.124 344.847 254.908 345.113 254.762L346.969 253.765L343.745 247.669L341.888 248.69C341.62 248.831 341.318 248.896 341.016 248.876C340.713 248.856 340.422 248.754 340.174 248.579C339.889 248.381 339.592 248.201 339.295 248.034C339.026 247.891 338.802 247.676 338.649 247.412C338.496 247.149 338.42 246.848 338.429 246.543L338.497 244.426L331.584 244.216L331.522 246.339C331.508 246.643 331.411 246.937 331.241 247.189C331.07 247.442 330.834 247.642 330.557 247.768C330.408 247.836 330.253 247.917 330.105 247.997C329.956 248.078 329.808 248.158 329.659 248.251C329.401 248.407 329.104 248.49 328.802 248.49C328.5 248.49 328.204 248.407 327.945 248.251L326.132 247.125L322.468 253.023L324.269 254.143C324.526 254.305 324.734 254.536 324.868 254.809C325.003 255.082 325.059 255.387 325.03 255.69C324.999 256.031 324.987 256.374 324.993 256.717C325.002 257.02 324.927 257.32 324.776 257.583C324.625 257.846 324.405 258.063 324.139 258.209L322.282 259.211L325.55 265.301L327.407 264.305C327.674 264.161 327.976 264.095 328.279 264.114C328.581 264.132 328.873 264.235 329.121 264.41C329.404 264.607 329.697 264.788 330 264.955C330.268 265.099 330.491 265.314 330.644 265.578C330.797 265.841 330.874 266.142 330.866 266.446L330.798 268.563L337.705 268.779L337.773 266.656C337.786 266.354 337.883 266.061 338.052 265.81C338.221 265.559 338.457 265.359 338.732 265.233C338.887 265.159 339.042 265.085 339.19 264.998L339.636 264.75C339.895 264.591 340.194 264.507 340.499 264.507C340.804 264.507 341.103 264.591 341.362 264.75L343.157 265.821ZM337.309 261.458C336.322 261.985 335.202 262.207 334.089 262.098C332.976 261.988 331.92 261.55 331.055 260.841C330.191 260.132 329.556 259.182 329.231 258.112C328.906 257.041 328.906 255.899 329.23 254.828C329.554 253.758 330.189 252.808 331.053 252.098C331.917 251.388 332.972 250.95 334.085 250.839C335.198 250.729 336.319 250.951 337.306 251.477C338.292 252.003 339.101 252.81 339.629 253.796C339.981 254.451 340.199 255.17 340.273 255.91C340.346 256.649 340.273 257.397 340.058 258.108C339.842 258.82 339.488 259.482 339.017 260.057C338.545 260.631 337.964 261.108 337.309 261.458Z" fill="#EBEBEB"/>
<path d="M47.9199 428.655L45.4877 424.453L44.2067 425.195C44.0179 425.307 43.8009 425.363 43.5814 425.355C43.3619 425.348 43.1493 425.277 42.9689 425.152C42.7696 425.021 42.563 424.901 42.35 424.793C42.1624 424.695 42.0054 424.547 41.8962 424.366C41.787 424.185 41.7299 423.977 41.7311 423.766V422.286H36.8853V423.766C36.8865 423.977 36.8294 424.185 36.7202 424.366C36.611 424.547 36.454 424.695 36.2664 424.793C36.0535 424.901 35.8468 425.021 35.6475 425.152C35.4671 425.277 35.2545 425.348 35.035 425.355C34.8156 425.363 34.5985 425.307 34.4098 425.195L33.1287 424.453L30.7089 428.649L31.9961 429.391C32.1796 429.499 32.3295 429.655 32.429 429.843C32.5285 430.031 32.5736 430.243 32.5593 430.456C32.5593 430.573 32.5593 430.697 32.5593 430.815C32.5593 430.932 32.5593 431.05 32.5593 431.167C32.5743 431.38 32.5295 431.592 32.43 431.78C32.3304 431.968 32.1801 432.125 31.9961 432.232L30.7089 432.981L33.1287 437.177L34.416 436.434C34.6047 436.322 34.8217 436.266 35.0412 436.274C35.2607 436.282 35.4733 436.352 35.6537 436.477C35.8518 436.607 36.0622 436.725 36.2726 436.836C36.4597 436.933 36.6165 437.08 36.7257 437.26C36.8349 437.44 36.8923 437.647 36.8915 437.858V439.343H41.7311V437.858C41.7304 437.647 41.7877 437.44 41.8969 437.26C42.0061 437.08 42.1629 436.933 42.35 436.836C42.5604 436.725 42.7709 436.607 42.9689 436.477C43.146 436.358 43.3529 436.291 43.5661 436.284C43.7794 436.276 43.9905 436.328 44.1757 436.434L45.463 437.177L47.8828 432.981L46.5955 432.238C46.4137 432.129 46.2654 431.972 46.1672 431.784C46.0689 431.596 46.0244 431.385 46.0385 431.174C46.0385 431.056 46.0385 430.932 46.0385 430.815C46.0385 430.697 46.0385 430.573 46.0385 430.456C46.0243 430.243 46.0694 430.031 46.1689 429.843C46.2684 429.655 46.4182 429.499 46.6017 429.391L47.9199 428.655ZM43.2907 430.821C43.2907 431.606 43.0579 432.373 42.6217 433.025C42.1855 433.678 41.5656 434.186 40.8404 434.486C40.1151 434.787 39.3172 434.865 38.5475 434.711C37.7778 434.558 37.0709 434.179 36.5164 433.624C35.9618 433.068 35.5845 432.361 35.4321 431.591C35.2798 430.821 35.3592 430.023 35.6604 429.298C35.9616 428.574 36.471 427.955 37.1242 427.519C37.7774 427.084 38.545 426.853 39.3299 426.854C39.8497 426.855 40.3643 426.958 40.8442 427.158C41.3241 427.358 41.7599 427.65 42.1266 428.019C42.4933 428.387 42.7838 428.824 42.9815 429.305C43.1791 429.786 43.28 430.301 43.2783 430.821H43.2907Z" fill="#EBEBEB"/>
<path d="M28.2271 366.952C24.4975 366.952 20.8517 368.058 17.7506 370.13C14.6495 372.202 12.2325 375.148 10.8053 378.593C9.37801 382.039 9.00457 385.831 9.73218 389.488C10.4598 393.146 12.2558 396.506 14.893 399.144C17.5303 401.781 20.8903 403.577 24.5483 404.305C28.2062 405.032 31.9978 404.659 35.4435 403.231C38.8892 401.804 41.8344 399.387 43.9064 396.286C45.9785 393.185 47.0845 389.539 47.0845 385.81C47.0853 383.333 46.5981 380.881 45.6507 378.592C44.7033 376.304 43.3143 374.225 41.5631 372.474C39.8119 370.722 37.7327 369.333 35.4445 368.386C33.1562 367.439 30.7038 366.951 28.2271 366.952ZM28.2271 394.61C26.4851 394.61 24.7822 394.093 23.3338 393.125C21.8854 392.157 20.7566 390.782 20.0903 389.172C19.4239 387.563 19.2498 385.792 19.5901 384.083C19.9305 382.375 20.7698 380.805 22.0021 379.574C23.2343 378.343 24.8041 377.504 26.5128 377.165C28.2216 376.826 29.9925 377.001 31.6016 377.669C33.2107 378.336 34.5857 379.466 35.5526 380.915C36.5196 382.364 37.0351 384.068 37.0338 385.81C37.0338 386.966 36.806 388.111 36.3633 389.179C35.9207 390.247 35.2719 391.217 34.454 392.035C33.6362 392.852 32.6653 393.5 31.5969 393.942C30.5284 394.384 29.3834 394.611 28.2271 394.61Z" fill="#EBEBEB"/>
<path d="M31.8538 367.732H24.6005L25.0028 362.602H31.4515L31.8538 367.732Z" fill="#EBEBEB"/>
<path d="M18.0466 370.177L12.9222 375.301L9.57408 371.39L14.1352 366.829L18.0466 370.177Z" fill="#EBEBEB"/>
<path d="M10.0197 381.663V388.916L4.88296 388.514V382.065L10.0197 381.663Z" fill="#EBEBEB"/>
<path d="M12.4581 395.464L17.5886 400.595L13.6773 403.943L9.11611 399.382L12.4581 395.464Z" fill="#EBEBEB"/>
<path d="M23.9507 403.497H31.1978L30.8017 408.634H24.3529L23.9507 403.497Z" fill="#EBEBEB"/>
<path d="M37.7517 401.053L42.8822 395.928L46.2242 399.84L41.663 404.401L37.7517 401.053Z" fill="#EBEBEB"/>
<path d="M45.7848 389.566V382.313L50.9153 382.715V389.17L45.7848 389.566Z" fill="#EBEBEB"/>
<path d="M43.3402 375.765L38.2159 370.635L42.1272 367.293L46.6884 371.848L43.3402 375.765Z" fill="#EBEBEB"/>
<path d="M375.227 273.959C371.497 273.959 367.85 275.066 364.747 277.138C361.645 279.211 359.228 282.157 357.8 285.604C356.372 289.051 355.999 292.844 356.726 296.503C357.454 300.162 359.251 303.523 361.889 306.161C364.527 308.799 367.888 310.596 371.547 311.324C375.207 312.052 378.999 311.678 382.446 310.25C385.893 308.823 388.839 306.405 390.912 303.303C392.985 300.201 394.091 296.554 394.091 292.823C394.092 290.345 393.604 287.892 392.657 285.603C391.709 283.314 390.32 281.234 388.568 279.482C386.816 277.731 384.736 276.341 382.447 275.394C380.158 274.446 377.705 273.958 375.227 273.959ZM375.227 301.623C373.486 301.622 371.783 301.104 370.336 300.136C368.888 299.167 367.76 297.791 367.095 296.181C366.43 294.571 366.256 292.8 366.597 291.092C366.938 289.384 367.778 287.816 369.011 286.585C370.243 285.354 371.813 284.517 373.522 284.178C375.23 283.839 377.001 284.015 378.61 284.683C380.218 285.35 381.593 286.48 382.56 287.929C383.526 289.378 384.042 291.081 384.04 292.823C384.04 293.979 383.812 295.125 383.369 296.193C382.926 297.262 382.277 298.233 381.458 299.05C380.64 299.867 379.668 300.515 378.599 300.957C377.53 301.398 376.384 301.625 375.227 301.623Z" fill="#EBEBEB"/>
<path d="M378.854 274.745H371.601L372.003 269.609H378.458L378.854 274.745Z" fill="#EBEBEB"/>
<path d="M365.053 277.19L359.923 282.314L356.581 278.403L361.142 273.842L365.053 277.19Z" fill="#EBEBEB"/>
<path d="M357.02 288.676V295.93L351.889 295.527V289.079L357.02 288.676Z" fill="#EBEBEB"/>
<path d="M359.465 302.477L364.589 307.608L360.678 310.95L356.116 306.395L359.465 302.477Z" fill="#EBEBEB"/>
<path d="M370.951 310.51H378.204L377.802 315.647H371.353L370.951 310.51Z" fill="#EBEBEB"/>
<path d="M384.752 308.066L389.883 302.941L393.231 306.853L388.67 311.414L384.752 308.066Z" fill="#EBEBEB"/>
<path d="M392.785 296.579V289.326L397.922 289.728V296.177L392.785 296.579Z" fill="#EBEBEB"/>
<path d="M390.347 282.778L385.216 277.648L389.128 274.3L393.689 278.861L390.347 282.778Z" fill="#EBEBEB"/>
<path d="M325.569 403.522L324.956 407.26L324.306 411.277L318.328 447.908H308.562L314.534 411.277L315.19 407.26L315.796 403.522H325.569Z" fill="#EBEBEB"/>
<path d="M324.151 403.522C323.638 407.235 323.081 410.949 322.524 414.662L320.803 425.765L318.99 436.83L318.061 442.4L317.096 447.933L317.888 442.363L318.724 436.793L320.444 425.69L322.251 414.6C322.864 410.905 323.489 407.211 324.151 403.522Z" fill="#C7C7C7"/>
<path d="M324.956 407.26L324.306 411.277H314.534L315.19 407.26H324.956Z" fill="#C7C7C7"/>
<path d="M373.798 403.522L374.404 407.26L375.06 411.277L381.033 447.908H390.805L384.833 411.277L384.177 407.26L383.57 403.522H373.798Z" fill="#EBEBEB"/>
<path d="M375.246 403.522C375.76 407.235 376.311 410.949 376.874 414.662L378.594 425.765L380.401 436.83L381.33 442.369L382.301 447.902L381.509 442.332L380.674 436.762L378.953 425.69L377.165 414.594C376.546 410.905 375.927 407.211 375.246 403.522Z" fill="#C7C7C7"/>
<path d="M374.404 407.26H384.177L384.833 411.277H375.06L374.404 407.26Z" fill="#C7C7C7"/>
<path d="M325.21 393.218H317.461L318.427 385.995H324.25L325.21 393.218Z" fill="#C7C7C7"/>
<path d="M328.558 380.834C328.559 382.263 328.136 383.66 327.344 384.848C326.551 386.037 325.423 386.963 324.104 387.511C322.784 388.058 321.332 388.202 319.93 387.924C318.529 387.646 317.241 386.959 316.231 385.949C315.22 384.939 314.531 383.652 314.252 382.251C313.973 380.85 314.116 379.398 314.662 378.078C315.209 376.758 316.134 375.629 317.322 374.835C318.51 374.041 319.907 373.618 321.335 373.618C322.283 373.617 323.223 373.803 324.099 374.165C324.975 374.527 325.771 375.059 326.442 375.729C327.113 376.399 327.645 377.195 328.008 378.071C328.371 378.947 328.558 379.886 328.558 380.834Z" fill="#DBDBDB"/>
<path d="M326.825 380.834C326.826 381.92 326.505 382.982 325.903 383.885C325.3 384.789 324.443 385.493 323.44 385.91C322.437 386.326 321.333 386.436 320.268 386.225C319.203 386.014 318.224 385.491 317.456 384.724C316.688 383.956 316.164 382.978 315.952 381.913C315.739 380.848 315.848 379.744 316.263 378.741C316.678 377.737 317.382 376.88 318.285 376.276C319.188 375.673 320.249 375.351 321.335 375.351C322.79 375.351 324.185 375.928 325.215 376.956C326.244 377.984 326.823 379.379 326.825 380.834Z" fill="white"/>
<path d="M325.928 380.512C325.878 379.857 325.692 379.22 325.383 378.64C325.074 378.061 324.649 377.552 324.133 377.145C323.612 376.74 323.014 376.445 322.376 376.279C321.737 376.113 321.072 376.079 320.419 376.18C319.775 376.28 319.159 376.516 318.612 376.871C318.065 377.226 317.599 377.693 317.245 378.241C316.872 378.822 316.627 379.475 316.527 380.158C316.426 380.841 316.473 381.538 316.663 382.202C316.996 383.352 317.767 384.325 318.81 384.912C319.828 385.489 321.021 385.672 322.165 385.426C323.275 385.193 324.271 384.585 324.987 383.705C325.691 382.837 326.097 381.765 326.144 380.648C326.144 380.592 326.144 380.549 326.101 380.549C326.057 380.549 326.051 380.586 326.051 380.642C326.027 381.093 325.94 381.539 325.791 381.966C325.638 382.388 325.43 382.787 325.172 383.155C324.915 383.52 324.614 383.853 324.275 384.145C323.925 384.433 323.543 384.681 323.136 384.881C322.558 385.154 321.928 385.302 321.289 385.317C320.649 385.332 320.014 385.213 319.423 384.968C318.823 384.715 318.285 384.335 317.846 383.854C317.407 383.374 317.077 382.803 316.879 382.183C316.678 381.545 316.617 380.872 316.701 380.209C316.784 379.545 317.01 378.908 317.362 378.34C317.701 377.798 318.153 377.336 318.687 376.986C319.221 376.635 319.825 376.405 320.457 376.31C321.528 376.115 322.633 376.305 323.577 376.848C324.521 377.391 325.242 378.25 325.612 379.274C325.759 379.686 325.857 380.114 325.903 380.549L325.928 380.512Z" fill="#EBEBEB"/>
<path d="M325.284 380.512C325.234 379.951 325.07 379.407 324.802 378.912C324.534 378.417 324.167 377.982 323.724 377.634C323.281 377.293 322.774 377.044 322.233 376.9C321.692 376.757 321.128 376.722 320.574 376.799C320.019 376.881 319.487 377.08 319.014 377.382C318.54 377.684 318.136 378.082 317.826 378.55C317.499 379.051 317.283 379.616 317.191 380.207C317.099 380.798 317.134 381.402 317.294 381.979C317.431 382.477 317.665 382.944 317.984 383.351C318.303 383.758 318.699 384.097 319.151 384.349C320.038 384.853 321.082 385.01 322.078 384.788C323.039 384.577 323.899 384.044 324.516 383.278C325.127 382.524 325.481 381.593 325.525 380.623C325.525 380.58 325.525 380.543 325.476 380.543C325.426 380.543 325.426 380.574 325.426 380.623C325.374 381.398 325.118 382.144 324.683 382.787C324.248 383.43 323.65 383.945 322.951 384.281C322.448 384.525 321.898 384.66 321.339 384.676C320.78 384.692 320.224 384.589 319.708 384.374C319.187 384.156 318.721 383.827 318.342 383.408C317.963 382.99 317.682 382.494 317.517 381.954C317.346 381.403 317.297 380.822 317.372 380.25C317.448 379.678 317.648 379.13 317.956 378.643C318.25 378.182 318.64 377.79 319.099 377.494C319.559 377.199 320.077 377.006 320.617 376.929C321.53 376.769 322.469 376.933 323.273 377.392C324.077 377.851 324.696 378.575 325.024 379.441C325.152 379.793 325.239 380.159 325.284 380.531C325.285 380.524 325.285 380.518 325.284 380.512Z" fill="#EBEBEB"/>
<path d="M324.64 380.512C324.592 380.047 324.45 379.596 324.224 379.186C323.997 378.777 323.691 378.417 323.322 378.129C322.576 377.559 321.636 377.306 320.704 377.424C320.239 377.486 319.792 377.646 319.393 377.894C318.994 378.141 318.652 378.47 318.389 378.86C318.106 379.279 317.915 379.755 317.831 380.255C317.747 380.754 317.77 381.266 317.901 381.756C318.013 382.183 318.211 382.583 318.482 382.932C318.753 383.281 319.092 383.572 319.479 383.786C320.231 384.208 321.112 384.338 321.954 384.151C322.769 383.965 323.496 383.506 324.015 382.851C324.524 382.208 324.82 381.423 324.863 380.605C324.863 380.568 324.863 380.537 324.82 380.537C324.776 380.537 324.77 380.537 324.764 380.605C324.718 381.261 324.498 381.894 324.127 382.438C323.757 382.981 323.248 383.417 322.654 383.699C322.231 383.911 321.768 384.029 321.297 384.046C320.825 384.063 320.355 383.979 319.918 383.798C319.477 383.615 319.081 383.336 318.76 382.982C318.439 382.628 318.2 382.207 318.061 381.75C317.923 381.284 317.887 380.795 317.955 380.314C318.024 379.833 318.195 379.373 318.458 378.965C318.707 378.585 319.037 378.264 319.422 378.024C319.808 377.784 320.241 377.63 320.692 377.572C321.29 377.5 321.897 377.572 322.462 377.783C323.044 377.991 323.556 378.357 323.941 378.841C324.124 379.087 324.276 379.356 324.393 379.639C324.501 379.931 324.578 380.234 324.622 380.543C324.627 380.54 324.632 380.535 324.635 380.53C324.638 380.524 324.64 380.518 324.64 380.512Z" fill="#EBEBEB"/>
<path d="M323.997 380.512C323.9 379.764 323.51 379.085 322.914 378.624C322.319 378.179 321.579 377.974 320.84 378.049C320.463 378.094 320.1 378.217 319.774 378.411C319.448 378.605 319.166 378.865 318.946 379.175C318.709 379.516 318.547 379.904 318.471 380.313C318.395 380.722 318.407 381.142 318.507 381.546C318.594 381.901 318.755 382.235 318.977 382.526C319.2 382.816 319.48 383.058 319.801 383.235C320.432 383.586 321.172 383.685 321.874 383.514C322.541 383.353 323.134 382.971 323.557 382.431C323.97 381.896 324.21 381.248 324.244 380.574C324.245 380.567 324.245 380.561 324.243 380.554C324.241 380.548 324.238 380.542 324.234 380.537C324.23 380.532 324.225 380.527 324.219 380.524C324.214 380.521 324.207 380.519 324.201 380.518C324.186 380.52 324.173 380.526 324.163 380.536C324.153 380.546 324.146 380.56 324.145 380.574C324.094 381.098 323.909 381.601 323.609 382.034C323.309 382.467 322.904 382.817 322.431 383.049C322.089 383.227 321.713 383.328 321.328 383.346C320.944 383.364 320.56 383.299 320.203 383.155C319.841 383.006 319.518 382.778 319.257 382.486C318.997 382.194 318.806 381.847 318.699 381.471C318.592 381.094 318.567 380.697 318.628 380.309C318.689 379.921 318.834 379.551 319.052 379.225C319.257 378.924 319.524 378.672 319.836 378.485C320.148 378.298 320.497 378.181 320.859 378.142C321.33 378.1 321.806 378.161 322.251 378.321C322.701 378.487 323.098 378.769 323.402 379.138C323.548 379.329 323.671 379.537 323.768 379.757C323.862 379.988 323.931 380.229 323.972 380.475C323.972 380.475 324.003 380.543 323.997 380.512Z" fill="#EBEBEB"/>
<path d="M381.732 393.218H373.984L374.949 385.995H380.773L381.732 393.218Z" fill="#C7C7C7"/>
<path d="M385.08 380.834C385.081 382.263 384.659 383.66 383.866 384.848C383.073 386.037 381.946 386.963 380.626 387.511C379.306 388.058 377.854 388.202 376.453 387.924C375.051 387.646 373.764 386.959 372.753 385.949C371.742 384.939 371.054 383.652 370.775 382.251C370.495 380.85 370.638 379.398 371.185 378.078C371.731 376.758 372.657 375.629 373.845 374.835C375.032 374.041 376.429 373.618 377.858 373.618C379.772 373.618 381.608 374.378 382.963 375.731C384.317 377.084 385.078 378.919 385.08 380.834Z" fill="#DBDBDB"/>
<path d="M383.353 380.834C383.355 381.92 383.034 382.982 382.431 383.885C381.829 384.789 380.972 385.493 379.969 385.91C378.966 386.326 377.862 386.436 376.797 386.225C375.732 386.014 374.753 385.491 373.985 384.724C373.216 383.956 372.693 382.978 372.48 381.913C372.268 380.848 372.376 379.744 372.792 378.741C373.207 377.737 373.911 376.88 374.814 376.276C375.716 375.673 376.778 375.351 377.864 375.351C379.319 375.351 380.714 375.928 381.743 376.956C382.773 377.984 383.352 379.379 383.353 380.834Z" fill="white"/>
<path d="M382.444 380.512C382.396 379.857 382.213 379.22 381.905 378.64C381.597 378.06 381.171 377.551 380.655 377.145C380.135 376.74 379.537 376.445 378.898 376.279C378.26 376.113 377.594 376.079 376.942 376.18C376.297 376.28 375.681 376.516 375.134 376.871C374.587 377.226 374.121 377.693 373.767 378.241C373.394 378.822 373.15 379.475 373.049 380.158C372.949 380.841 372.995 381.538 373.185 382.202C373.518 383.352 374.289 384.325 375.333 384.912C376.35 385.489 377.544 385.672 378.687 385.426C379.797 385.193 380.793 384.585 381.509 383.705C382.214 382.837 382.62 381.765 382.667 380.648C382.667 380.592 382.667 380.549 382.623 380.549C382.58 380.549 382.574 380.586 382.574 380.642C382.549 381.093 382.462 381.539 382.314 381.966C382.158 382.387 381.95 382.786 381.695 383.155C381.438 383.52 381.136 383.853 380.797 384.145C380.448 384.433 380.065 384.681 379.659 384.881C379.076 385.158 378.441 385.309 377.796 385.324C377.151 385.339 376.51 385.217 375.914 384.968C375.314 384.715 374.776 384.335 374.337 383.854C373.898 383.374 373.568 382.803 373.371 382.183C373.17 381.545 373.109 380.872 373.192 380.209C373.276 379.545 373.501 378.908 373.854 378.34C374.192 377.798 374.643 377.335 375.178 376.985C375.712 376.634 376.316 376.404 376.948 376.31C378.021 376.112 379.129 376.301 380.076 376.844C381.022 377.387 381.745 378.248 382.116 379.274C382.263 379.686 382.36 380.114 382.407 380.549C382.416 380.549 382.426 380.545 382.433 380.538C382.44 380.531 382.444 380.522 382.444 380.512Z" fill="#EBEBEB"/>
<path d="M381.806 380.512C381.757 379.951 381.593 379.407 381.324 378.912C381.056 378.417 380.689 377.982 380.247 377.634C379.803 377.293 379.296 377.044 378.756 376.9C378.215 376.757 377.651 376.722 377.097 376.799C376.541 376.881 376.01 377.08 375.536 377.382C375.063 377.684 374.658 378.082 374.349 378.55C374.022 379.051 373.805 379.616 373.713 380.207C373.622 380.798 373.657 381.402 373.817 381.979C373.953 382.477 374.188 382.944 374.506 383.351C374.825 383.758 375.222 384.097 375.673 384.349C376.561 384.853 377.604 385.01 378.6 384.788C379.561 384.577 380.421 384.044 381.039 383.278C381.65 382.525 382.002 381.593 382.041 380.623C382.041 380.58 382.041 380.543 381.998 380.543C381.955 380.543 381.949 380.574 381.949 380.623C381.897 381.398 381.64 382.144 381.205 382.787C380.77 383.43 380.173 383.945 379.473 384.281C378.97 384.525 378.421 384.66 377.862 384.676C377.303 384.692 376.746 384.589 376.23 384.374C375.71 384.156 375.243 383.827 374.865 383.408C374.486 382.99 374.204 382.494 374.039 381.954C373.869 381.403 373.819 380.823 373.894 380.251C373.968 379.68 374.166 379.131 374.473 378.643C374.767 378.183 375.158 377.792 375.617 377.497C376.076 377.201 376.593 377.007 377.134 376.929C378.047 376.768 378.987 376.931 379.793 377.39C380.598 377.848 381.219 378.574 381.546 379.441C381.674 379.793 381.761 380.159 381.806 380.531C381.808 380.524 381.808 380.518 381.806 380.512Z" fill="#EBEBEB"/>
<path d="M381.163 380.512C381.114 380.047 380.973 379.596 380.746 379.186C380.52 378.777 380.213 378.417 379.844 378.129C379.099 377.557 378.159 377.301 377.226 377.418C376.761 377.48 376.314 377.64 375.915 377.887C375.516 378.135 375.174 378.464 374.912 378.853C374.628 379.273 374.438 379.749 374.353 380.249C374.269 380.748 374.293 381.26 374.423 381.75C374.535 382.177 374.733 382.577 375.004 382.926C375.276 383.275 375.615 383.565 376.001 383.78C376.753 384.201 377.635 384.331 378.477 384.145C379.291 383.958 380.018 383.5 380.538 382.845C381.046 382.202 381.342 381.417 381.385 380.599C381.385 380.562 381.385 380.531 381.342 380.531C381.299 380.531 381.293 380.531 381.286 380.599C381.237 381.254 381.015 381.885 380.645 382.428C380.275 382.971 379.768 383.407 379.176 383.693C378.754 383.904 378.291 384.023 377.819 384.04C377.347 384.057 376.877 383.972 376.441 383.792C375.999 383.61 375.603 383.331 375.281 382.977C374.96 382.623 374.722 382.201 374.584 381.744C374.446 381.278 374.409 380.788 374.478 380.308C374.546 379.827 374.717 379.367 374.98 378.959C375.23 378.579 375.559 378.258 375.945 378.018C376.33 377.777 376.763 377.623 377.214 377.566C377.812 377.494 378.419 377.566 378.984 377.777C379.552 377.992 380.051 378.358 380.426 378.835C380.609 379.081 380.761 379.349 380.878 379.633C380.987 379.925 381.064 380.228 381.107 380.537C381.112 380.54 381.118 380.542 381.124 380.542C381.13 380.542 381.136 380.541 381.141 380.539C381.147 380.536 381.151 380.533 381.155 380.528C381.159 380.523 381.161 380.518 381.163 380.512Z" fill="#EBEBEB"/>
<path d="M380.519 380.512C380.422 379.764 380.033 379.085 379.436 378.624C378.842 378.179 378.102 377.974 377.363 378.049C376.986 378.094 376.622 378.217 376.296 378.411C375.97 378.605 375.688 378.865 375.469 379.175C375.231 379.516 375.069 379.904 374.993 380.313C374.918 380.722 374.93 381.142 375.03 381.546C375.117 381.901 375.277 382.235 375.5 382.526C375.722 382.816 376.003 383.058 376.323 383.235C376.954 383.586 377.695 383.686 378.396 383.514C379.063 383.353 379.657 382.971 380.08 382.431C380.491 381.895 380.73 381.248 380.767 380.574C380.767 380.567 380.767 380.561 380.765 380.554C380.764 380.548 380.761 380.542 380.757 380.537C380.753 380.532 380.748 380.527 380.742 380.524C380.736 380.521 380.73 380.519 380.723 380.518C380.709 380.52 380.696 380.526 380.685 380.536C380.675 380.546 380.669 380.56 380.668 380.574C380.616 381.098 380.432 381.601 380.132 382.034C379.832 382.467 379.426 382.817 378.953 383.049C378.612 383.227 378.235 383.328 377.851 383.346C377.466 383.364 377.082 383.299 376.725 383.155C376.363 383.006 376.04 382.778 375.78 382.486C375.519 382.194 375.328 381.847 375.221 381.471C375.114 381.094 375.09 380.697 375.151 380.309C375.212 379.921 375.356 379.551 375.574 379.225C375.779 378.924 376.047 378.672 376.359 378.485C376.671 378.298 377.02 378.181 377.381 378.142C377.853 378.1 378.328 378.161 378.774 378.321C379.222 378.485 379.618 378.768 379.919 379.138C380.069 379.328 380.193 379.536 380.29 379.757C380.385 379.988 380.453 380.229 380.494 380.475C380.494 380.475 380.519 380.543 380.519 380.512Z" fill="#EBEBEB"/>
<path d="M398.361 389.535H301.011V408.157H398.361V389.535Z" fill="#DBDBDB"/>
<path d="M321.014 389.535L313.952 408.157H301.376L308.444 389.535H321.014Z" fill="#EBEBEB"/>
<path d="M346.784 389.535L339.722 408.157H327.147L334.208 389.535H346.784Z" fill="#EBEBEB"/>
<path d="M372.554 389.535L365.486 408.157H352.917L359.984 389.535H372.554Z" fill="#EBEBEB"/>
<path d="M398.324 389.535L391.257 408.157H378.681L385.749 389.535H398.324Z" fill="#EBEBEB"/>
<path d="M396.387 425.369H302.979V437.152H396.387V425.369Z" fill="#DBDBDB"/>
<path d="M322.177 425.369L315.4 437.152H303.338L310.115 425.369H322.177Z" fill="#EBEBEB"/>
<path d="M346.901 425.369L340.125 437.152H328.056L334.839 425.369H346.901Z" fill="#EBEBEB"/>
<path d="M371.626 425.369L364.849 437.152H352.787L359.564 425.369H371.626Z" fill="#EBEBEB"/>
<path d="M396.356 425.369L389.573 437.152H377.505L384.288 425.369H396.356Z" fill="#EBEBEB"/>
<path d="M274.195 505.916C336.457 505.916 386.931 502.508 386.931 498.304C386.931 494.1 336.457 490.691 274.195 490.691C211.933 490.691 161.46 494.1 161.46 498.304C161.46 502.508 211.933 505.916 274.195 505.916Z" fill="#EBEBEB"/>
<path d="M4.44974 447.896L53.6879 447.747L102.926 447.692L201.402 447.593L299.879 447.692L349.117 447.747L398.355 447.896L349.117 448.05L299.879 448.106L201.402 448.205L102.926 448.106L53.6879 448.05L4.44974 447.896Z" fill="#263238"/>
<path d="M320.246 290.712H82.5587V449.709H320.246V290.712Z" fill="#DBDBDB"/>
<path d="M318.519 292.656H84.2854V447.772H318.519V292.656Z" fill="#263238"/>
<path d="M351.203 461.629H51.6023V472.54H351.203V461.629Z" fill="#C7C7C7"/>
<path d="M51.6023 461.629L82.5587 449.709H320.246L351.203 461.629H51.6023Z" fill="#DBDBDB"/>
<path d="M85.3251 457.402L105.303 449.709H297.502L317.48 457.402H85.3251Z" fill="#263238"/>
<path d="M305.461 304.383H97.35V436.038H305.461V304.383Z" fill="white"/>
<path d="M305.461 304.383H97.35V309.452H305.461V304.383Z" fill="#455A64"/>
<path d="M101.373 306.915C101.373 307.159 101.3 307.399 101.164 307.602C101.028 307.806 100.835 307.965 100.609 308.058C100.382 308.152 100.134 308.176 99.8934 308.129C99.6533 308.081 99.4328 307.963 99.2597 307.79C99.0866 307.617 98.9687 307.396 98.9209 307.156C98.8732 306.916 98.8977 306.667 98.9914 306.441C99.0851 306.215 99.2437 306.022 99.4472 305.886C99.6508 305.75 99.8901 305.677 100.135 305.677C100.463 305.677 100.778 305.807 101.01 306.039C101.242 306.272 101.373 306.586 101.373 306.915Z" fill="#F1AD00"/>
<path d="M106.503 306.915C106.503 307.159 106.431 307.399 106.295 307.602C106.159 307.806 105.965 307.965 105.739 308.058C105.513 308.152 105.264 308.176 105.024 308.129C104.784 308.081 104.563 307.963 104.39 307.79C104.217 307.617 104.099 307.396 104.051 307.156C104.004 306.916 104.028 306.667 104.122 306.441C104.216 306.215 104.374 306.022 104.578 305.886C104.781 305.75 105.021 305.677 105.265 305.677C105.594 305.677 105.909 305.807 106.141 306.039C106.373 306.272 106.503 306.586 106.503 306.915Z" fill="#EBEBEB"/>
<path d="M111.665 306.915C111.665 307.159 111.592 307.399 111.456 307.602C111.32 307.806 111.127 307.965 110.901 308.058C110.674 308.152 110.426 308.176 110.185 308.129C109.945 308.081 109.725 307.963 109.552 307.79C109.379 307.617 109.261 307.396 109.213 307.156C109.165 306.916 109.19 306.667 109.283 306.441C109.377 306.215 109.536 306.022 109.739 305.886C109.943 305.75 110.182 305.677 110.427 305.677C110.755 305.677 111.07 305.807 111.302 306.039C111.534 306.272 111.665 306.586 111.665 306.915Z" fill="white"/>
<path d="M196.866 395.328H234.785V366.234H196.866V395.328Z" fill="#EBEBEB"/>
<path d="M200.635 372.603C200.49 373.328 200.582 374.081 200.898 374.75C201.214 375.419 201.737 375.969 202.389 376.318C203.041 376.667 203.788 376.797 204.52 376.688C205.252 376.58 205.93 376.239 206.453 375.716C206.976 375.193 207.317 374.515 207.425 373.783C207.534 373.052 207.404 372.304 207.055 371.652C206.706 371 206.156 370.477 205.487 370.161C204.818 369.845 204.065 369.753 203.34 369.898C202.672 370.032 202.059 370.36 201.578 370.841C201.096 371.322 200.768 371.935 200.635 372.603Z" fill="white"/>
<path d="M209.374 389.065H234.779L222.073 373.407L209.374 389.065Z" fill="#C7C7C7"/>
<path d="M196.86 389.077H219.393L208.13 378.878L196.86 389.077Z" fill="#DBDBDB"/>
<path d="M234.779 389.065H196.86V395.334H234.779V389.065Z" fill="#DBDBDB"/>
<path d="M136.104 366.241H107.623V368.636H136.104V366.241Z" fill="#DBDBDB"/>
<path d="M190.046 371.798H107.623V374.193H190.046V371.798Z" fill="#DBDBDB"/>
<path d="M190.046 377.071H107.623V379.466H190.046V377.071Z" fill="#DBDBDB"/>
<path d="M190.046 382.344H107.623V384.739H190.046V382.344Z" fill="#DBDBDB"/>
<path d="M190.046 387.617H107.623V390.012H190.046V387.617Z" fill="#DBDBDB"/>
<path d="M190.046 392.883H107.623V395.278H190.046V392.883Z" fill="#DBDBDB"/>
<path d="M204.744 319.199H176.263V325.611H204.744V319.199Z" fill="#DBDBDB"/>
<path d="M234.779 330.03H176.263V332.425H234.779V330.03Z" fill="#DBDBDB"/>
<path d="M234.779 335.303H176.263V337.698H234.779V335.303Z" fill="#DBDBDB"/>
<path d="M234.779 340.576H176.263V342.971H234.779V340.576Z" fill="#DBDBDB"/>
<path d="M234.779 345.848H176.263V348.244H234.779V345.848Z" fill="#DBDBDB"/>
<path d="M234.779 352.86H176.263V355.255H234.779V352.86Z" fill="#DBDBDB"/>
<path d="M234.779 358.133H176.263V360.528H234.779V358.133Z" fill="#DBDBDB"/>
<path d="M295.175 319.199H243.09V325.722H295.175V319.199Z" fill="#F1AD00"/>
<path d="M295.039 325.778H243.233V428.098H295.039V325.778Z" fill="white"/>
<path d="M295.181 428.265H243.09V325.611H295.181V428.265ZM243.375 427.931H294.891V325.945H243.375V427.931Z" fill="#DBDBDB"/>
<path d="M243.369 428.16L243.096 428.036L294.903 325.716L295.169 325.84L243.369 428.16Z" fill="#DBDBDB"/>
<path d="M294.903 428.16L243.096 325.84L243.369 325.716L295.169 428.036L294.903 428.16Z" fill="#DBDBDB"/>
<path d="M169.809 319.311H107.735V360.411H169.809V319.311Z" fill="white"/>
<path d="M107.636 360.528V360.423V319.218H107.741H169.914V360.528H169.839H107.636ZM107.834 319.422V360.318H169.722V319.428L107.834 319.422Z" fill="#DBDBDB"/>
<path d="M107.834 319.422C113.051 322.733 118.243 326.094 123.423 329.461L138.926 339.623L154.367 349.896L162.06 355.07L169.716 360.299L161.899 355.311L154.126 350.267L138.617 340.105L123.182 329.826C118.052 326.385 112.902 322.956 107.834 319.422Z" fill="#DBDBDB"/>
<path d="M169.71 319.422C164.616 322.931 159.492 326.385 154.361 329.826L138.926 340.105L123.423 350.267L115.644 355.311L107.834 360.299L115.489 355.07L123.176 349.896L138.611 339.623L154.12 329.461C159.319 326.094 164.486 322.733 169.71 319.422Z" fill="#DBDBDB"/>
<path d="M107.834 399.283V428.184H234.488V399.283H107.834Z" fill="white"/>
<path d="M234.698 399.202V428.29H107.623V399.202H234.698ZM234.277 428.104V399.363H108.026V428.104H234.277Z" fill="#DBDBDB"/>
<path d="M234.568 428.11L234.414 428.259L107.753 399.357L107.908 399.208L234.568 428.11Z" fill="#DBDBDB"/>
<path d="M234.568 399.357L107.908 428.259L107.753 428.11L234.414 399.208L234.568 399.357Z" fill="#DBDBDB"/>
<path d="M35.3752 443.223L34.7873 447.432L34.1498 451.956L28.3323 493.179H18.8263L24.6438 451.956L25.2812 447.432L25.8692 443.223H35.3752Z" fill="#F1AD00"/>
<path opacity="0.1" d="M34.0013 443.223C33.5 447.401 32.9616 451.572 32.4169 455.737L30.7398 468.238L28.9822 480.715L28.0786 486.96L27.1317 493.185L27.9053 486.929L28.7346 480.666L30.4118 468.17L32.1694 455.687C32.7511 451.529 33.3576 447.351 34.0013 443.223Z" fill="black"/>
<path opacity="0.1" d="M34.7873 447.432L34.1498 451.956H24.6438L25.2812 447.432H34.7873Z" fill="black"/>
<path d="M82.3049 443.223L82.8929 447.432L83.5303 451.956L89.3416 493.179H98.8476L93.0363 451.956L92.3989 447.432L91.811 443.223H82.3049Z" fill="#F1AD00"/>
<path opacity="0.1" d="M83.7098 443.223C84.2111 447.401 84.7495 451.572 85.2941 455.737L86.9713 468.238L88.7289 480.715L89.6325 486.96L90.5794 493.185L89.8058 486.929L88.9951 480.672L87.3179 468.176L85.5603 455.694C84.96 451.529 84.3535 447.351 83.7098 443.223Z" fill="black"/>
<path opacity="0.1" d="M82.8929 447.432H92.3989L93.0363 451.956H83.5303L82.8929 447.432Z" fill="black"/>
<path d="M35.0286 434.577H27.4907L28.4314 427.553H34.0941L35.0286 434.577Z" fill="#F1AD00"/>
<path opacity="0.1" d="M35.0286 434.577H27.4907L28.4314 427.553H34.0941L35.0286 434.577Z" fill="black"/>
<path d="M38.2839 422.528C38.2839 423.917 37.872 425.275 37.1001 426.43C36.3283 427.585 35.2312 428.486 33.9477 429.017C32.6642 429.549 31.2518 429.688 29.8893 429.417C28.5267 429.146 27.2751 428.477 26.2927 427.495C25.3103 426.512 24.6413 425.261 24.3703 423.898C24.0993 422.536 24.2384 421.123 24.77 419.84C25.3017 418.556 26.202 417.459 27.3571 416.687C28.5123 415.915 29.8704 415.504 31.2596 415.504C32.1821 415.504 33.0955 415.685 33.9477 416.038C34.7999 416.391 35.5743 416.909 36.2266 417.561C36.8788 418.213 37.3962 418.988 37.7492 419.84C38.1022 420.692 38.2839 421.605 38.2839 422.528Z" fill="#F1AD00"/>
<path d="M36.6006 422.528C36.6018 423.584 36.2896 424.618 35.7035 425.497C35.1174 426.376 34.2836 427.061 33.3078 427.467C32.332 427.872 31.2579 427.978 30.2215 427.773C29.185 427.568 28.2328 427.06 27.4852 426.313C26.7377 425.566 26.2284 424.614 26.0218 423.578C25.8152 422.542 25.9206 421.468 26.3247 420.492C26.7287 419.515 27.4133 418.681 28.2917 418.094C29.1702 417.506 30.203 417.193 31.2596 417.193C32.6751 417.193 34.0326 417.755 35.0341 418.755C36.0355 419.755 36.5989 421.112 36.6006 422.528Z" fill="white"/>
<path d="M35.7218 422.218C35.6735 421.582 35.4941 420.963 35.1948 420.4C34.8955 419.836 34.4828 419.341 33.9827 418.945C33.4776 418.554 32.8988 418.269 32.2809 418.107C31.663 417.945 31.0188 417.91 30.387 418.004C29.7589 418.101 29.1583 418.329 28.625 418.675C28.0916 419.02 27.6375 419.475 27.2926 420.009C26.9292 420.573 26.6909 421.209 26.5938 421.873C26.4966 422.537 26.5429 423.214 26.7294 423.858C27.0469 424.981 27.797 425.931 28.8151 426.501C29.8053 427.065 30.969 427.244 32.0828 427.002C33.1623 426.775 34.1306 426.183 34.8244 425.325C35.5082 424.479 35.9029 423.435 35.9508 422.348C35.9508 422.299 35.9508 422.256 35.9074 422.256C35.8641 422.256 35.8579 422.293 35.8579 422.348C35.8318 422.786 35.7485 423.219 35.6104 423.636C35.3167 424.458 34.8107 425.188 34.1436 425.752C33.8041 426.035 33.4322 426.276 33.0358 426.47C32.4687 426.741 31.8507 426.888 31.2225 426.903C30.5943 426.918 29.97 426.8 29.3906 426.557C28.8063 426.311 28.2823 425.942 27.8548 425.474C27.4274 425.006 27.1068 424.45 26.9151 423.846C26.7236 423.229 26.6665 422.579 26.7476 421.938C26.8288 421.298 27.0463 420.682 27.3854 420.133C27.7154 419.606 28.1548 419.157 28.6738 418.815C29.1928 418.474 29.7792 418.247 30.3932 418.152C31.2204 418.02 32.0681 418.113 32.8462 418.424C33.6242 418.735 34.3036 419.25 34.812 419.916C35.0664 420.256 35.2745 420.629 35.4309 421.024C35.5698 421.425 35.6632 421.84 35.7094 422.262C35.7159 422.257 35.7207 422.25 35.7229 422.242C35.7251 422.234 35.7247 422.226 35.7218 422.218Z" fill="#F1AD00"/>
<path d="M35.0967 422.225C35.0493 421.68 34.8909 421.151 34.6312 420.67C34.3715 420.189 34.016 419.766 33.5866 419.427C33.1514 419.092 32.6532 418.847 32.1217 418.708C31.5901 418.569 31.036 418.538 30.4922 418.617C29.9526 418.696 29.436 418.888 28.9762 419.182C28.5165 419.475 28.1241 419.862 27.8248 420.318C27.5047 420.805 27.2926 421.354 27.203 421.93C27.1133 422.505 27.1481 423.093 27.305 423.654C27.4393 424.139 27.6681 424.593 27.9782 424.989C28.2883 425.385 28.6737 425.716 29.1121 425.963C29.9795 426.447 30.9939 426.599 31.9652 426.39C32.9013 426.186 33.7386 425.666 34.3355 424.917C34.9263 424.182 35.2687 423.278 35.3133 422.336C35.3133 422.293 35.3133 422.256 35.27 422.256C35.2267 422.256 35.2205 422.286 35.2205 422.336C35.1671 423.092 34.9131 423.821 34.4845 424.446C34.0559 425.072 33.4682 425.572 32.7821 425.895C32.2936 426.133 31.7601 426.264 31.217 426.28C30.6739 426.296 30.1336 426.196 29.632 425.987C29.1262 425.773 28.6731 425.451 28.3044 425.044C27.9357 424.637 27.6601 424.154 27.4968 423.629C27.3331 423.094 27.2864 422.529 27.3601 421.974C27.4338 421.419 27.6261 420.886 27.9239 420.411C28.2111 419.963 28.5913 419.582 29.0387 419.294C29.4861 419.005 29.9902 418.817 30.517 418.74C31.2216 418.633 31.942 418.715 32.6044 418.979C33.2667 419.242 33.8471 419.676 34.286 420.238C34.4986 420.53 34.6733 420.849 34.8058 421.185C34.9288 421.527 35.0139 421.882 35.0596 422.243L35.0967 422.225Z" fill="#F1AD00"/>
<path d="M34.4716 422.231C34.4269 421.778 34.2902 421.339 34.0699 420.941C33.8496 420.543 33.5504 420.194 33.1905 419.916C32.4671 419.359 31.5523 419.112 30.6469 419.229C30.1945 419.289 29.7599 419.445 29.3717 419.685C28.9834 419.924 28.6503 420.244 28.3942 420.622C28.1177 421.031 27.932 421.494 27.8498 421.981C27.7676 422.468 27.7908 422.967 27.9177 423.444C28.0269 423.859 28.2192 424.249 28.483 424.588C28.7468 424.927 29.0766 425.21 29.4525 425.418C30.1906 425.836 31.0584 425.961 31.8847 425.771C32.675 425.6 33.3828 425.163 33.8899 424.533C34.3841 423.908 34.6718 423.144 34.713 422.348C34.713 422.311 34.713 422.28 34.6697 422.28C34.6264 422.28 34.6202 422.28 34.6202 422.348C34.5688 422.984 34.3522 423.594 33.9917 424.12C33.6313 424.645 33.1396 425.067 32.5655 425.344C32.1542 425.548 31.704 425.662 31.2449 425.678C30.7859 425.694 30.3288 425.612 29.9043 425.437C29.475 425.254 29.0917 424.979 28.7823 424.63C28.4729 424.281 28.2452 423.867 28.1157 423.419C27.9813 422.967 27.9465 422.491 28.0138 422.024C28.0811 421.557 28.2489 421.11 28.5056 420.715C28.7494 420.346 29.0694 420.033 29.4441 419.798C29.8188 419.563 30.2395 419.412 30.6779 419.353C31.2595 419.284 31.849 419.354 32.3984 419.557C32.95 419.765 33.4339 420.12 33.7971 420.585C33.9767 420.824 34.1244 421.086 34.2365 421.364C34.3445 421.648 34.4213 421.943 34.4654 422.243C34.4654 422.243 34.4778 422.243 34.4716 422.231Z" fill="#F1AD00"/>
<path d="M33.8466 422.237C33.8052 421.873 33.6908 421.52 33.51 421.201C33.3292 420.882 33.0858 420.603 32.7945 420.38C32.2168 419.945 31.4964 419.744 30.7769 419.817C30.4075 419.858 30.051 419.977 29.7309 420.165C29.4108 420.354 29.1345 420.609 28.9203 420.913C28.6869 421.244 28.5274 421.621 28.4527 422.02C28.378 422.418 28.3897 422.828 28.4871 423.221C28.5707 423.564 28.7237 423.887 28.9366 424.169C29.1494 424.451 29.4176 424.686 29.7248 424.861C30.3365 425.203 31.0554 425.301 31.7362 425.133C32.3888 424.981 32.9684 424.607 33.3762 424.075C33.7747 423.562 34.0078 422.941 34.0446 422.293C34.0446 422.262 34.0446 422.237 34.0013 422.237C33.9876 422.238 33.975 422.245 33.9658 422.255C33.9567 422.266 33.9517 422.279 33.9518 422.293C33.9047 422.806 33.7262 423.299 33.4336 423.724C33.141 424.149 32.744 424.492 32.2808 424.719C31.9491 424.893 31.5835 424.992 31.2094 425.01C30.8353 425.029 30.4617 424.965 30.1147 424.824C29.774 424.676 29.4698 424.456 29.2238 424.178C28.9778 423.9 28.796 423.571 28.6913 423.215C28.5864 422.846 28.5631 422.46 28.623 422.081C28.6828 421.703 28.8244 421.342 29.0379 421.024C29.2376 420.733 29.4982 420.488 29.8017 420.308C30.1052 420.127 30.4443 420.015 30.7955 419.978C31.2545 419.937 31.7169 419.996 32.1508 420.151C32.5879 420.311 32.9731 420.587 33.2648 420.95C33.412 421.14 33.5346 421.348 33.63 421.569C33.7163 421.798 33.7825 422.034 33.828 422.274C33.828 422.274 33.8528 422.243 33.8466 422.237Z" fill="#F1AD00"/>
<path d="M90.0224 434.577H82.4844L83.4251 427.553H89.0879L90.0224 434.577Z" fill="#F1AD00"/>
<path opacity="0.1" d="M90.0224 434.577H82.4844L83.4251 427.553H89.0879L90.0224 434.577Z" fill="black"/>
<path d="M93.2777 422.528C93.2777 423.917 92.8657 425.275 92.0939 426.43C91.3221 427.585 90.225 428.486 88.9415 429.017C87.658 429.549 86.2456 429.688 84.883 429.417C83.5204 429.146 82.2688 428.477 81.2865 427.495C80.3041 426.512 79.6351 425.261 79.3641 423.898C79.093 422.536 79.2321 421.123 79.7638 419.84C80.2954 418.556 81.1958 417.459 82.3509 416.687C83.5061 415.915 84.8641 415.504 86.2534 415.504C87.1758 415.504 88.0893 415.685 88.9415 416.038C89.7937 416.391 90.5681 416.909 91.2203 417.561C91.8726 418.213 92.39 418.988 92.743 419.84C93.096 420.692 93.2777 421.605 93.2777 422.528Z" fill="#F1AD00"/>
<path d="M91.5944 422.528C91.5956 423.584 91.2834 424.618 90.6973 425.497C90.1111 426.376 89.2774 427.061 88.3016 427.467C87.3258 427.872 86.2517 427.978 85.2152 427.773C84.1788 427.568 83.2266 427.06 82.479 426.313C81.7314 425.566 81.2221 424.614 81.0155 423.578C80.809 422.542 80.9144 421.468 81.3184 420.492C81.7225 419.515 82.4071 418.681 83.2855 418.094C84.1639 417.506 85.1968 417.193 86.2534 417.193C87.6688 417.193 89.0264 417.755 90.0278 418.755C91.0293 419.755 91.5927 421.112 91.5944 422.528Z" fill="white"/>
<path d="M90.7155 422.218C90.6672 421.582 90.4878 420.963 90.1885 420.4C89.8892 419.836 89.4766 419.341 88.9765 418.945C88.4714 418.554 87.8926 418.269 87.2747 418.107C86.6568 417.945 86.0126 417.91 85.3808 418.004C84.7526 418.101 84.1521 418.329 83.6187 418.675C83.0854 419.02 82.6313 419.475 82.2864 420.009C81.923 420.573 81.6847 421.209 81.5875 421.873C81.4904 422.537 81.5366 423.214 81.7232 423.858C82.0406 424.981 82.7908 425.931 83.8088 426.501C84.799 427.065 85.9627 427.244 87.0765 427.002C88.1561 426.775 89.1243 426.183 89.8181 425.325C90.5046 424.48 90.8997 423.436 90.9445 422.348C90.9445 422.299 90.9445 422.256 90.9012 422.256C90.8579 422.256 90.8517 422.293 90.8517 422.348C90.8285 422.787 90.7452 423.22 90.6041 423.636C90.3105 424.458 89.8044 425.188 89.1374 425.752C88.7979 426.035 88.426 426.276 88.0296 426.47C87.4624 426.741 86.8445 426.888 86.2162 426.903C85.588 426.918 84.9637 426.8 84.3844 426.557C83.8 426.311 83.276 425.942 82.8486 425.474C82.4212 425.006 82.1005 424.45 81.9088 423.846C81.7174 423.229 81.6603 422.579 81.7414 421.938C81.8225 421.298 82.04 420.682 82.3792 420.133C82.7092 419.606 83.1486 419.157 83.6675 418.815C84.1865 418.474 84.7729 418.247 85.387 418.152C86.2141 418.02 87.0618 418.113 87.8399 418.424C88.618 418.735 89.2974 419.25 89.8058 419.916C90.0602 420.256 90.2683 420.629 90.4246 421.024C90.5636 421.425 90.657 421.84 90.7032 422.262C90.7121 422.249 90.7164 422.234 90.7155 422.218Z" fill="#F1AD00"/>
<path d="M90.0905 422.225C90.0431 421.68 89.8846 421.151 89.6249 420.67C89.3652 420.189 89.0097 419.766 88.5804 419.427C88.1452 419.092 87.647 418.847 87.1155 418.708C86.5839 418.569 86.0298 418.538 85.486 418.617C84.9464 418.696 84.4298 418.888 83.97 419.182C83.5103 419.475 83.1179 419.862 82.8186 420.318C82.4985 420.805 82.2864 421.354 82.1967 421.93C82.1071 422.505 82.1418 423.093 82.2988 423.654C82.4331 424.139 82.6618 424.593 82.972 424.989C83.2821 425.385 83.6675 425.716 84.1059 425.963C84.9733 426.447 85.9876 426.599 86.9589 426.39C87.8951 426.186 88.7324 425.666 89.3293 424.917C89.9201 424.182 90.2625 423.278 90.3071 422.336C90.3071 422.293 90.3071 422.256 90.2638 422.256C90.2204 422.256 90.2143 422.286 90.2143 422.336C90.1609 423.092 89.9069 423.821 89.4783 424.446C89.0496 425.072 88.462 425.572 87.7759 425.895C87.2874 426.133 86.7539 426.264 86.2108 426.28C85.6677 426.296 85.1274 426.196 84.6258 425.987C84.1188 425.774 83.6646 425.452 83.2947 425.045C82.9249 424.638 82.6484 424.155 82.4844 423.629C82.3206 423.094 82.274 422.529 82.3477 421.974C82.4214 421.419 82.6136 420.886 82.9115 420.411C83.1987 419.963 83.5789 419.582 84.0263 419.294C84.4737 419.005 84.9778 418.817 85.5046 418.74C86.2092 418.633 86.9296 418.715 87.592 418.979C88.2543 419.242 88.8347 419.676 89.2736 420.238C89.4862 420.53 89.6609 420.849 89.7934 421.185C89.9164 421.527 90.0015 421.882 90.0472 422.243C90.0472 422.243 90.0967 422.237 90.0905 422.225Z" fill="#F1AD00"/>
<path d="M89.4654 422.231C89.4206 421.778 89.2839 421.339 89.0636 420.941C88.8434 420.543 88.5441 420.194 88.1843 419.916C87.4609 419.359 86.5461 419.112 85.6407 419.229C85.1883 419.289 84.7537 419.445 84.3654 419.685C83.9772 419.924 83.6441 420.244 83.388 420.622C83.1114 421.031 82.9258 421.494 82.8436 421.981C82.7614 422.468 82.7845 422.967 82.9115 423.444C83.0206 423.859 83.2129 424.249 83.4767 424.588C83.7405 424.927 84.0704 425.21 84.4463 425.418C85.1844 425.836 86.0522 425.961 86.8785 425.771C87.6688 425.6 88.3766 425.163 88.8837 424.533C89.3805 423.909 89.6684 423.145 89.7068 422.348C89.7068 422.311 89.7068 422.28 89.6634 422.28C89.6201 422.28 89.6139 422.28 89.6139 422.348C89.5626 422.984 89.3459 423.594 88.9855 424.12C88.625 424.645 88.1333 425.067 87.5593 425.344C87.148 425.548 86.6977 425.662 86.2387 425.678C85.7797 425.694 85.3226 425.612 84.8981 425.437C84.4691 425.258 84.085 424.987 83.7736 424.643C83.4621 424.298 83.2311 423.889 83.0971 423.444C82.9626 422.992 82.9279 422.516 82.9952 422.049C83.0625 421.582 83.2303 421.135 83.487 420.739C83.7308 420.37 84.0508 420.058 84.4255 419.823C84.8002 419.588 85.2209 419.436 85.6593 419.378C86.2409 419.309 86.8304 419.379 87.3798 419.582C87.8003 419.733 88.1835 419.973 88.5038 420.285C88.824 420.596 89.0738 420.973 89.2364 421.389C89.3445 421.673 89.4213 421.968 89.4654 422.268C89.4654 422.268 89.4716 422.243 89.4654 422.231Z" fill="#F1AD00"/>
<path d="M88.8403 422.237C88.799 421.873 88.6845 421.52 88.5037 421.201C88.3229 420.882 88.0796 420.603 87.7882 420.38C87.2109 419.945 86.4902 419.744 85.7707 419.817C85.4013 419.858 85.0447 419.977 84.7247 420.165C84.4046 420.354 84.1283 420.609 83.914 420.913C83.6818 421.244 83.523 421.622 83.4483 422.02C83.3736 422.418 83.3847 422.828 83.4808 423.221C83.5645 423.564 83.7175 423.887 83.9303 424.169C84.1432 424.451 84.4114 424.686 84.7186 424.861C85.3303 425.203 86.0492 425.301 86.7299 425.133C87.3826 424.981 87.9622 424.607 88.37 424.075C88.7684 423.562 89.0015 422.941 89.0384 422.293C89.0384 422.262 89.0384 422.237 88.995 422.237C88.9814 422.239 88.9687 422.245 88.9596 422.255C88.9504 422.266 88.9454 422.279 88.9455 422.293C88.8984 422.806 88.72 423.299 88.4274 423.724C88.1347 424.149 87.7377 424.492 87.2745 424.719C86.9429 424.893 86.5772 424.992 86.2031 425.01C85.829 425.029 85.4554 424.965 85.1085 424.824C84.7563 424.679 84.4415 424.456 84.1876 424.172C83.9336 423.888 83.747 423.55 83.6417 423.184C83.5369 422.815 83.5135 422.429 83.5734 422.05C83.6332 421.672 83.7748 421.311 83.9883 420.993C84.188 420.702 84.4487 420.457 84.7521 420.277C85.0556 420.096 85.3947 419.984 85.7459 419.947C86.2049 419.906 86.6673 419.965 87.1013 420.12C87.5383 420.28 87.9235 420.556 88.2152 420.919C88.3624 421.109 88.4851 421.317 88.5804 421.538C88.6667 421.767 88.733 422.003 88.7784 422.243C88.7784 422.243 88.8465 422.243 88.8403 422.237Z" fill="#F1AD00"/>
<path d="M106.194 430.994H11.4802V449.109H106.194V430.994Z" fill="white"/>
<path d="M106.355 449.263H11.3255V430.839H106.355V449.263ZM11.6659 448.954H106.045V431.149H11.6349L11.6659 448.954Z" fill="#263238"/>
<path d="M30.9502 430.994L24.0744 449.115H11.8453L18.7149 430.994H30.9502Z" fill="#F1AD00"/>
<path d="M56.0211 430.994L49.1515 449.115H36.91L43.7858 430.994H56.0211Z" fill="#F1AD00"/>
<path d="M81.0919 430.994L74.2162 449.115H61.9871L68.8628 430.994H81.0919Z" fill="#F1AD00"/>
<path d="M106.169 430.994L99.2932 449.115H87.0579L93.9275 430.994H106.169Z" fill="#F1AD00"/>
<path d="M104.281 471.252H13.3987V482.72H104.281V471.252Z" fill="white"/>
<path d="M104.436 482.875H13.2626V471.116H104.436V482.875ZM13.5535 482.565H104.127V471.426H13.5535V482.565Z" fill="#263238"/>
<path d="M32.0766 471.252L25.4793 482.72H13.7453L20.3426 471.252H32.0766Z" fill="#F1AD00"/>
<path d="M56.1386 471.252L49.5414 482.72H37.8012L44.3985 471.252H56.1386Z" fill="#F1AD00"/>
<path d="M80.1884 471.252L73.5973 482.72H61.8571L68.4544 471.252H80.1884Z" fill="#F1AD00"/>
<path d="M104.25 471.252L97.6532 482.72H85.913L92.5103 471.252H104.25Z" fill="#F1AD00"/>
<path d="M73.1758 443.47C75.0653 435.551 70.1773 427.599 62.2579 425.71C54.3386 423.82 46.3869 428.708 44.4973 436.627C42.6078 444.547 47.4958 452.499 55.4152 454.388C63.3345 456.278 71.2862 451.39 73.1758 443.47Z" fill="white"/>
<path d="M58.837 454.945C55.8905 454.945 53.0101 454.071 50.5603 452.434C48.1105 450.797 46.2011 448.47 45.0738 445.748C43.9466 443.025 43.6519 440.03 44.2272 437.14C44.8025 434.25 46.2218 431.596 48.3058 429.513C50.3897 427.43 53.0446 426.011 55.9346 425.437C58.8246 424.863 61.82 425.159 64.5419 426.288C67.2638 427.416 69.5898 429.326 71.2259 431.777C72.862 434.227 73.7347 437.108 73.7334 440.055C73.7302 444.004 72.1595 447.79 69.3664 450.582C66.5733 453.374 62.7862 454.943 58.837 454.945ZM58.837 425.468C55.9519 425.468 53.1317 426.323 50.7329 427.926C48.334 429.529 46.4644 431.807 45.3603 434.472C44.2563 437.138 43.9674 440.071 44.5302 442.9C45.0931 445.73 46.4824 448.329 48.5224 450.369C50.5624 452.409 53.1616 453.798 55.9912 454.361C58.8208 454.924 61.7538 454.635 64.4192 453.531C67.0846 452.427 69.3628 450.557 70.9656 448.159C72.5685 445.76 73.424 442.94 73.424 440.055C73.4207 436.187 71.8828 432.478 69.1479 429.744C66.4131 427.009 62.7047 425.471 58.837 425.468Z" fill="#263238"/>
<path d="M70.9973 442.95C72.5966 436.237 68.4511 429.499 61.738 427.899C55.025 426.3 48.2865 430.446 46.6873 437.159C45.088 443.872 49.2335 450.61 55.9466 452.21C62.6596 453.809 69.3981 449.663 70.9973 442.95Z" fill="#F1AD00"/>
<path d="M66.672 438.6H51.0019V441.503H66.672V438.6Z" fill="white"/>
<path d="M265.073 494.696L268.204 473.146L269.114 473.555L270.562 474.211L276.85 477.057L282.476 479.595L286.189 481.272L291.827 483.822L294.921 485.214C295.456 485.505 295.889 485.952 296.161 486.496C296.434 487.039 296.534 487.654 296.447 488.256C296.36 488.858 296.09 489.418 295.675 489.863C295.259 490.307 294.718 490.614 294.123 490.741L292.817 490.92L290.763 491.199L284.642 492.028L280.607 492.579L274.48 493.414L271.918 493.767L265.073 494.696Z" fill="#F1AD00"/>
<g style="mix-blend-mode:multiply" opacity="0.1">
<path d="M269.269 473.746C268.959 474.557 268.574 475.336 268.118 476.073C266.205 479.056 264.825 485.159 265.865 492.164C265.925 492.922 266.081 493.668 266.329 494.386L267.641 494.299C267.641 494.299 273.75 480.894 293.721 484.62L291.864 483.766L286.232 481.229L282.519 479.552L276.887 477.002L269.269 473.746Z" fill="black"/>
</g>
<path d="M284.636 492.028L286.195 481.272L291.833 483.822L290.756 491.199L284.636 492.028Z" fill="#EBEBEB"/>
<path d="M274.474 493.414L276.85 477.051L282.488 479.601L280.601 492.579L274.474 493.414Z" fill="#EBEBEB"/>
<path d="M210.067 494.163H189.087L189.347 493.235L189.774 491.762L191.63 485.375L193.276 479.651L194.36 475.882L196.006 470.157L196.909 467.019C197.11 466.468 197.476 465.993 197.956 465.657C198.437 465.32 199.009 465.14 199.595 465.14C200.182 465.14 200.754 465.32 201.234 465.657C201.715 465.993 202.08 466.468 202.281 467.019L202.634 468.257L203.185 470.169L204.831 475.894L205.914 479.663L207.56 485.388L208.247 487.783L210.067 494.163Z" fill="#F1AD00"/>
<path d="M210.84 499.603H183.269L187.663 488.717H215.234L210.84 499.603Z" fill="#F1AD00"/>
<path d="M204.837 475.882H194.366L196.012 470.163H203.191L204.837 475.882Z" fill="#EBEBEB"/>
<path d="M207.566 485.375H191.636L193.283 479.651H205.92L207.566 485.375Z" fill="#EBEBEB"/>
<path d="M188.814 492.703C190.513 493.465 192.301 494.008 194.137 494.318C195.953 494.635 197.795 494.775 199.639 494.739C200.561 494.677 201.495 494.671 202.399 494.528C202.857 494.467 203.321 494.436 203.773 494.355C204.224 494.275 204.682 494.182 205.14 494.108C205.369 494.064 205.598 494.027 205.827 493.978L206.502 493.811L207.857 493.483C208.755 493.241 209.64 492.938 210.556 492.703C209.708 493.105 208.854 493.507 207.981 493.854L206.638 494.312L205.97 494.535C205.741 494.603 205.512 494.652 205.283 494.714L203.896 495.042C203.438 495.147 202.962 495.197 202.498 495.277C201.556 495.414 200.608 495.5 199.657 495.537C197.755 495.57 195.857 495.362 194.007 494.918C192.154 494.505 190.394 493.754 188.814 492.703Z" fill="#263238"/>
<g style="mix-blend-mode:multiply" opacity="0.1">
<path d="M189.538 493.062C190.353 493.245 191.148 493.504 191.915 493.835C195.009 495.246 201.031 495.692 207.597 493.749C208.309 493.586 208.997 493.335 209.646 493L209.38 491.762C209.38 491.762 195.764 487.801 196.544 468.245L195.993 470.157L194.347 475.882L193.264 479.651L191.618 485.375L189.538 493.062Z" fill="black"/>
</g>
<path d="M259.367 494.658L263.482 466.326L274.016 472.472L269.894 500.798L259.367 494.658Z" fill="#F1AD00"/>
<path d="M269.857 484.193C269.269 489.429 267.381 493.513 265.624 493.315C263.866 493.117 262.932 488.717 263.519 483.481C264.107 478.246 265.995 474.167 267.759 474.365C269.523 474.563 270.445 478.964 269.857 484.193Z" fill="#263238"/>
<path d="M317.065 499.566C318.303 499.95 353.263 499.201 354.575 498.328C355.077 498 355.262 492.895 355.318 486.731C355.318 485.4 355.318 484.026 355.318 482.627C355.318 480.969 355.318 479.298 355.287 477.676C355.194 470.374 354.972 463.943 354.972 463.943L332.209 464.364L332.475 478.097L332.568 483.048L332.766 487.145C332.766 487.145 319.504 493.427 318.167 494.535C316.83 495.642 315.834 499.189 317.065 499.566Z" fill="#D3766A"/>
<path d="M317.065 499.566C318.303 499.95 353.263 499.201 354.575 498.328C355.077 498 355.262 492.895 355.318 486.731C355.318 485.4 355.318 484.026 355.318 482.627C355.318 480.969 355.318 479.298 355.287 477.676L332.475 478.097L332.568 483.048L332.766 487.145C332.766 487.145 319.504 493.427 318.167 494.535C316.83 495.642 315.834 499.189 317.065 499.566Z" fill="white"/>
<path d="M316.96 499.622C317.758 499.869 332.655 499.622 343.497 499.22C345.973 499.121 348.3 499.009 350.15 498.892C352.7 498.731 354.408 498.557 354.681 498.378C355.3 497.969 355.448 490.487 355.436 482.59L332.537 483.017L332.729 487.139C332.729 487.139 319.398 493.445 318.049 494.566C316.7 495.686 315.728 499.232 316.96 499.622Z" fill="#F1AD00"/>
<path d="M317.43 498.205C323.322 497.932 347.137 497.394 352.954 497.586C353.004 497.586 353.004 497.586 352.954 497.586C347.118 497.982 323.334 498.328 317.436 498.279C317.313 498.297 317.306 498.211 317.43 498.205Z" fill="#263238"/>
<path d="M331.893 485.846C334.208 485.363 337.049 485.66 338.856 487.275C338.93 487.337 338.856 487.436 338.763 487.411C336.531 486.745 334.234 486.318 331.912 486.136C331.878 486.132 331.846 486.116 331.823 486.091C331.799 486.065 331.785 486.033 331.783 485.999C331.781 485.964 331.791 485.93 331.811 485.902C331.831 485.874 331.86 485.854 331.893 485.846Z" fill="#263238"/>
<path d="M330.241 486.891C332.556 486.409 335.396 486.706 337.203 488.321C337.278 488.383 337.203 488.482 337.111 488.457C334.879 487.788 332.582 487.361 330.26 487.182C330.226 487.178 330.194 487.162 330.171 487.136C330.147 487.111 330.133 487.079 330.131 487.044C330.129 487.01 330.138 486.976 330.158 486.948C330.179 486.92 330.208 486.9 330.241 486.891Z" fill="#263238"/>
<path d="M328.589 487.937C330.897 487.455 333.744 487.752 335.551 489.361C335.619 489.429 335.551 489.522 335.458 489.503C333.227 488.835 330.93 488.407 328.607 488.228C328.573 488.224 328.542 488.208 328.518 488.182C328.495 488.157 328.481 488.125 328.478 488.09C328.476 488.056 328.486 488.022 328.506 487.994C328.526 487.966 328.555 487.946 328.589 487.937Z" fill="#263238"/>
<path d="M326.936 488.983C329.245 488.501 332.092 488.791 333.899 490.407C333.967 490.469 333.899 490.568 333.806 490.549C331.574 489.881 329.277 489.453 326.955 489.274C326.921 489.27 326.889 489.253 326.866 489.228C326.842 489.203 326.828 489.171 326.826 489.136C326.824 489.102 326.834 489.068 326.854 489.04C326.874 489.012 326.903 488.992 326.936 488.983Z" fill="#263238"/>
<path d="M328.607 483.865C330.272 485.103 332.419 485.586 334.35 486.254C334.548 486.322 334.703 486.13 334.709 485.957C334.746 485.957 334.777 485.92 334.759 485.87C334.006 483.827 332.725 482.021 331.046 480.635C330.062 479.842 328.347 479.31 327.468 480.585C326.59 481.86 327.654 483.129 328.607 483.865ZM327.988 482.008C327.524 479.471 330.284 480.771 330.99 481.39C331.433 481.793 331.847 482.227 332.228 482.689C333.051 483.636 333.725 484.682 334.449 485.703C333.521 485.313 332.593 485.01 331.627 484.657C330.507 484.212 328.23 483.401 327.976 482.008H327.988Z" fill="#263238"/>
<path d="M342.427 482.157C341.808 480.721 340.056 480.876 338.924 481.439C336.997 482.444 335.368 483.938 334.202 485.771C334.197 485.779 334.194 485.789 334.193 485.799C334.192 485.808 334.193 485.818 334.197 485.827C334.2 485.836 334.206 485.844 334.213 485.851C334.221 485.857 334.23 485.862 334.239 485.864C334.202 486.037 334.313 486.26 334.524 486.235C336.554 485.994 338.751 485.988 340.644 485.134C341.752 484.626 342.99 483.512 342.427 482.157ZM337.525 485.251C336.529 485.394 335.532 485.487 334.542 485.666C335.436 484.793 336.374 483.967 337.352 483.191C337.832 482.821 338.337 482.484 338.862 482.182C339.679 481.736 342.65 481.074 341.653 483.457C341.109 484.762 338.707 485.066 337.556 485.233L337.525 485.251Z" fill="#263238"/>
<path opacity="0.2" d="M334.852 499.498C337.798 499.418 340.774 499.325 343.516 499.22C345.992 499.121 348.319 499.009 350.169 498.892C352.713 498.731 354.427 498.557 354.699 498.372C355.231 498.019 355.423 492.239 355.448 485.505C350.243 488.971 340.032 495.946 334.852 499.498Z" fill="black"/>
<path d="M330.526 486.873H356.519C356.519 486.873 355.095 428.395 355.374 427.033C356.042 423.778 370.846 372.225 370.846 372.225L350.33 372.578L343.324 372.696C343.324 372.696 343.943 381.286 343.683 382.195C340.255 394.703 333.564 416.061 332.197 423.976C329.789 437.721 330.526 486.873 330.526 486.873Z" fill="#263238"/>
<path d="M331.367 482.528C335.415 482.423 349.773 481.996 355.176 482.405C355.213 482.405 355.213 482.473 355.176 482.479C353.319 482.782 335.421 482.695 331.367 482.64C331.353 482.64 331.338 482.634 331.328 482.623C331.318 482.613 331.312 482.599 331.312 482.584C331.312 482.569 331.318 482.555 331.328 482.545C331.338 482.534 331.353 482.528 331.367 482.528Z" fill="#37474F"/>
<path d="M353.319 425.765C354.093 422.602 359.879 402.909 361.649 396.677C363.419 390.445 365.078 384.213 366.6 377.931C366.792 377.133 366.99 376.341 367.219 375.549C367.219 375.48 367.337 375.511 367.324 375.58C366.743 378.742 365.969 381.874 365.226 385.005C364.484 388.137 363.685 391.25 362.856 394.356C361.177 400.603 359.347 406.804 357.367 412.96C356.376 416.023 354.743 422.324 353.87 425.424C352.997 428.525 354.421 479.453 354.334 480.282C354.334 480.331 354.315 480.378 354.28 480.413C354.245 480.448 354.198 480.467 354.148 480.467C354.099 480.467 354.052 480.448 354.017 480.413C353.982 480.378 353.963 480.331 353.963 480.282C353.839 474.291 352.552 428.89 353.319 425.765Z" fill="#37474F"/>
<path d="M350.28 372.597C350.28 372.597 355.3 427.318 355.355 427.058C355.974 423.914 369.893 375.431 370.765 372.398L370.803 372.256L350.28 372.597Z" fill="#37474F"/>
<path d="M344.005 502.562C345.243 502.945 380.203 502.196 381.522 501.324C382.017 500.996 382.208 495.896 382.258 489.726C382.258 488.395 382.258 487.021 382.258 485.623C382.258 483.97 382.258 482.293 382.221 480.672C382.128 473.369 381.911 466.939 381.911 466.939L359.143 467.36L359.409 481.093L359.508 486.044L359.7 490.147C359.7 490.147 346.443 496.422 345.107 497.53C343.77 498.638 342.78 502.184 344.005 502.562Z" fill="#D3766A"/>
<path d="M344.005 502.562C345.243 502.945 380.203 502.196 381.522 501.324C382.017 500.996 382.208 495.896 382.258 489.726C382.258 488.395 382.258 487.021 382.258 485.623C382.258 483.97 382.258 482.293 382.221 480.672L359.409 481.093L359.508 486.044L359.7 490.147C359.7 490.147 346.443 496.422 345.107 497.53C343.77 498.638 342.78 502.184 344.005 502.562Z" fill="white"/>
<path d="M343.9 502.617C344.704 502.865 359.601 502.617 370.437 502.215C372.95 502.116 375.24 502.005 377.09 501.893C379.64 501.726 381.348 501.553 381.627 501.373C382.246 500.965 382.388 493.483 382.382 485.586L359.483 486.013L359.681 490.134C359.681 490.134 346.351 496.447 345.001 497.561C343.652 498.675 342.668 502.227 343.9 502.617Z" fill="#F1AD00"/>
<path d="M344.364 501.194C350.256 500.921 374.07 500.389 379.882 500.575C379.931 500.575 379.931 500.606 379.882 500.612C374.052 501.008 350.262 501.349 344.364 501.299C344.253 501.299 344.253 501.194 344.364 501.194Z" fill="#263238"/>
<path d="M358.84 488.816C361.148 488.333 363.995 488.63 365.802 490.246C365.87 490.308 365.802 490.407 365.703 490.388C363.472 489.716 361.175 489.289 358.852 489.113C358.813 489.115 358.774 489.101 358.745 489.074C358.716 489.047 358.699 489.01 358.697 488.971C358.696 488.931 358.71 488.893 358.736 488.864C358.763 488.835 358.8 488.818 358.84 488.816Z" fill="#263238"/>
<path d="M357.187 489.887C359.496 489.404 362.342 489.701 364.15 491.316C364.218 491.378 364.15 491.477 364.051 491.453C361.819 490.786 359.522 490.36 357.2 490.184C357.16 490.186 357.122 490.171 357.093 490.145C357.064 490.118 357.046 490.081 357.045 490.042C357.043 490.002 357.057 489.964 357.084 489.935C357.111 489.906 357.148 489.888 357.187 489.887Z" fill="#263238"/>
<path d="M355.535 490.933C357.843 490.45 360.69 490.747 362.497 492.362C362.565 492.424 362.497 492.523 362.398 492.499C360.166 491.833 357.869 491.405 355.547 491.224C355.513 491.218 355.482 491.201 355.46 491.176C355.437 491.15 355.423 491.117 355.422 491.083C355.421 491.049 355.431 491.015 355.452 490.988C355.472 490.96 355.501 490.941 355.535 490.933Z" fill="#263238"/>
<path d="M353.882 491.979C356.191 491.496 359.038 491.793 360.845 493.402C360.913 493.47 360.845 493.569 360.746 493.544C358.514 492.875 356.217 492.448 353.895 492.27C353.861 492.264 353.83 492.247 353.807 492.222C353.784 492.196 353.771 492.163 353.77 492.129C353.768 492.095 353.779 492.061 353.799 492.034C353.82 492.006 353.849 491.987 353.882 491.979Z" fill="#263238"/>
<path d="M355.547 486.854C357.218 488.092 359.366 488.569 361.296 489.237C361.495 489.305 361.649 489.113 361.649 488.94C361.659 488.94 361.669 488.937 361.678 488.932C361.687 488.927 361.695 488.92 361.7 488.912C361.706 488.903 361.709 488.893 361.71 488.883C361.711 488.873 361.709 488.863 361.705 488.853C360.949 486.812 359.668 485.006 357.992 483.618C357.008 482.825 355.3 482.299 354.415 483.574C353.53 484.849 354.575 486.13 355.547 486.854ZM354.928 484.998C354.464 482.46 357.224 483.76 357.924 484.379C358.364 484.785 358.777 485.219 359.161 485.678C359.951 486.644 360.691 487.65 361.377 488.692C360.449 488.302 359.52 487.999 358.555 487.653C357.453 487.207 355.176 486.396 354.922 484.998H354.928Z" fill="#263238"/>
<path d="M369.373 485.152C368.754 483.723 366.996 483.871 365.864 484.434C363.939 485.44 362.313 486.934 361.148 488.767C361.14 488.772 361.134 488.78 361.13 488.788C361.125 488.797 361.123 488.807 361.123 488.816C361.123 488.826 361.125 488.835 361.13 488.844C361.134 488.852 361.14 488.86 361.148 488.866C361.148 489.039 361.222 489.256 361.433 489.231C363.463 488.989 365.66 488.983 367.553 488.129C368.692 487.622 369.93 486.514 369.373 485.152ZM364.465 488.247C363.469 488.389 362.479 488.482 361.488 488.661C362.382 487.789 363.32 486.963 364.298 486.186C364.776 485.818 365.278 485.483 365.802 485.183C366.625 484.732 369.596 484.075 368.599 486.452C368.048 487.758 365.653 488.061 364.465 488.228V488.247Z" fill="#263238"/>
<path d="M358.184 489.516L383.391 489.051C383.391 489.051 376.311 398.138 377.202 393.317C378.644 385.432 377.418 376.434 373.625 372.163L349.061 372.615C349.061 372.615 348.696 379.516 351.302 383.606C351.302 383.606 353.635 385.017 354.761 385.643L358.184 489.516Z" fill="#263238"/>
<path d="M358.877 485.041C362.701 484.874 361.6 484.868 365.424 484.738C367.281 484.676 379.591 484.274 381.348 484.527C381.385 484.527 381.385 484.595 381.348 484.602C379.609 484.936 367.306 485.121 365.437 485.146C361.606 485.202 362.708 485.146 358.883 485.146C358.872 485.143 358.862 485.137 358.854 485.128C358.847 485.118 358.843 485.107 358.842 485.096C358.841 485.084 358.844 485.073 358.851 485.063C358.857 485.053 358.866 485.045 358.877 485.041Z" fill="#37474F"/>
<path d="M349.748 382.511C352.183 383.631 354.519 384.956 356.729 386.472C356.748 386.483 356.762 386.5 356.768 386.521C356.774 386.542 356.771 386.564 356.76 386.583C356.749 386.602 356.732 386.616 356.711 386.622C356.69 386.628 356.668 386.625 356.649 386.614C354.291 385.376 351.877 384.139 349.587 382.783C349.559 382.759 349.54 382.725 349.534 382.688C349.528 382.651 349.536 382.613 349.555 382.58C349.574 382.548 349.604 382.523 349.639 382.511C349.674 382.498 349.713 382.498 349.748 382.511Z" fill="#37474F"/>
<path d="M352.867 382.096C353.022 382.57 353.144 383.054 353.233 383.545C353.337 383.925 353.369 384.322 353.325 384.714C353.325 384.788 353.208 384.782 353.171 384.714C352.974 384.349 352.839 383.954 352.768 383.545C352.645 383.099 352.508 382.653 352.397 382.202C352.387 382.141 352.401 382.078 352.435 382.027C352.469 381.976 352.522 381.94 352.582 381.927C352.643 381.913 352.706 381.923 352.759 381.955C352.812 381.986 352.851 382.037 352.867 382.096Z" fill="#37474F"/>
<path d="M353.028 379.726C352.954 379.318 352.88 378.909 352.799 378.488C352.719 378.067 352.601 377.64 352.552 377.213C352.552 377.151 352.434 377.17 352.446 377.213C352.521 377.622 352.533 378.049 352.576 378.451C352.62 378.853 352.663 379.28 352.713 379.689C352.805 380.462 352.948 381.236 353.115 381.997C352.708 381.937 352.321 381.785 351.982 381.552C351.658 381.236 351.442 380.827 351.363 380.382C351.233 379.912 351.128 379.441 350.992 378.977C350.814 378.469 350.683 377.944 350.602 377.411C350.602 377.343 350.485 377.368 350.497 377.411C350.615 378.529 350.845 379.632 351.184 380.704C351.333 381.131 351.432 381.558 351.803 381.787C352.231 382.01 352.701 382.14 353.183 382.171C353.239 382.202 353.319 382.171 353.313 382.103C353.276 381.372 353.189 380.512 353.028 379.726Z" fill="#37474F"/>
<path d="M373.198 393.075C373.34 391.268 373.6 389.473 373.767 387.666C374.069 384.044 373.78 380.397 372.913 376.867C372.913 376.799 373 376.774 373.012 376.836C373.767 379.938 374.149 383.118 374.151 386.311C374.058 389.498 373.532 392.648 373.532 395.842C373.532 399.035 373.854 402.297 374.151 405.515C374.448 408.733 374.689 411.994 374.961 415.231C376.038 428.228 377.053 441.268 378.087 454.289C378.378 457.922 378.65 461.561 378.928 465.193C379.207 468.826 379.64 478.017 379.844 481.724C379.844 482.046 379.386 482.027 379.349 481.724C378.675 475.201 378.112 463.213 377.598 456.671C377.084 450.13 376.564 443.718 376.044 437.239C375.525 430.759 375.023 424.285 374.516 417.812C374.262 414.575 374.021 411.332 373.773 408.096C373.526 404.859 373.229 401.641 373.154 398.41C373.069 396.632 373.084 394.851 373.198 393.075Z" fill="#37474F"/>
<path d="M364.199 376.799C364.203 376.789 364.209 376.781 364.217 376.775C364.226 376.77 364.235 376.766 364.245 376.766C364.256 376.766 364.265 376.77 364.274 376.775C364.282 376.781 364.288 376.789 364.292 376.799C364.449 377.221 364.537 377.666 364.552 378.117C364.633 378.598 364.753 379.072 364.911 379.534C365.199 380.476 365.723 381.328 366.433 382.01C368.005 383.427 370.085 383.922 372.09 384.374C372.164 384.374 372.139 384.491 372.09 384.498C370.908 384.569 369.724 384.407 368.605 384.021C367.606 383.736 366.68 383.24 365.889 382.567C365.134 381.872 364.612 380.963 364.391 379.961C364.279 379.44 364.212 378.91 364.193 378.377C364.193 378.123 364.193 377.863 364.193 377.609C364.138 377.342 364.14 377.065 364.199 376.799Z" fill="#37474F"/>
<path d="M354.551 339.078C344.283 346.696 327.574 347.383 325.711 346.504C321.769 344.691 316.038 327.666 314.651 321.458C314.255 319.664 327.246 320.109 328.545 321.582C329.734 322.925 332.593 334.69 333.787 334.863C339.76 335.052 345.738 334.887 351.691 334.368C360.306 333.477 357.589 336.825 354.551 339.078Z" fill="#D3766A"/>
<path d="M341.888 333.985L343.429 346.009C343.429 346.009 352.57 342.432 356.55 338.762C360.529 335.092 358.258 333.743 354.285 333.539C350.311 333.335 341.888 333.985 341.888 333.985Z" fill="#EBEBEB"/>
<path d="M343.863 334.362C343.863 334.282 343.906 334.251 343.918 334.331C344.559 337.664 344.993 341.033 345.218 344.419C345.218 344.419 345.181 344.419 345.175 344.419C344.754 342.797 343.999 335.228 343.863 334.362Z" fill="#263238"/>
<path d="M378.551 380.091C378.464 380.19 342.099 380.964 341.765 380.599C341.288 380.079 347.155 343.608 352.904 335.649C354.34 333.663 359.502 332.295 361.649 334.306C367.888 340.13 369.2 345.044 370.833 349.048C372.42 353.379 373.753 357.799 374.825 362.286C377.028 370.851 378.842 379.745 378.551 380.091Z" fill="#EBEBEB"/>
<path d="M362.311 334.393C362.311 334.393 356.958 346.61 356.079 349.729C354.873 353.999 353.109 382.146 353.109 382.146L379.102 380.623C379.102 380.623 374.151 352.483 368.488 342.494C364.044 334.634 362.311 334.393 362.311 334.393Z" fill="#F1AD00"/>
<path d="M353.851 334.981C353.851 334.981 350.831 346.121 350.237 347.804C349.643 349.487 344.364 382.164 344.364 382.164L341.158 380.97C341.158 380.97 344.766 358.344 347.966 346.82C351.165 335.297 353.851 334.981 353.851 334.981Z" fill="#F1AD00"/>
<path d="M353.845 371.136L377.128 371.086C376.929 370.214 376.725 369.298 376.509 368.351L354.062 368.394C353.975 369.323 353.913 370.239 353.845 371.136Z" fill="#EBEBEB"/>
<path d="M342.842 371.155H346.171C346.313 370.263 346.468 369.347 346.623 368.419H343.337C343.163 369.372 342.996 370.276 342.842 371.155Z" fill="#EBEBEB"/>
<path d="M353.499 375.938L378.155 375.889C377.982 375.06 377.79 374.144 377.579 373.16L353.697 373.209C353.647 374.175 353.56 375.091 353.499 375.938Z" fill="#EBEBEB"/>
<path d="M342 375.963H345.385C345.521 375.103 345.67 374.187 345.824 373.228H342.47C342.303 374.212 342.142 375.128 342 375.963Z" fill="#EBEBEB"/>
<path d="M366.297 342.308C367.683 352.508 365.734 366.699 363.413 368.351C356.791 373.061 345.397 375.567 340.552 376.13C337.73 376.458 336.56 362.515 339.054 362.088C342.99 361.432 352.409 359.433 353.746 358.833C355.083 358.232 357.67 348.93 360.108 342.179C362.757 334.845 365.629 337.37 366.297 342.308Z" fill="#D3766A"/>
<path d="M342.173 362.564C340.015 361.112 338.08 359.352 336.43 357.341C334.573 354.866 332.042 351.004 330.674 351.963C327.877 353.937 334.146 363.598 334.146 363.598C334.146 363.598 337.593 367.416 340.545 365.702C341.079 365.379 341.513 364.916 341.8 364.362C342.088 363.809 342.216 363.187 342.173 362.564Z" fill="#D3766A"/>
<path d="M322.802 362.911C322.678 363.335 322.687 363.788 322.827 364.207C322.968 364.626 323.233 364.993 323.588 365.257C323.009 365.737 322.617 366.405 322.48 367.144C322.295 368.456 324.275 369.316 324.275 369.316C323.777 369.938 323.48 370.695 323.421 371.489C323.371 372.764 325.241 373.915 325.241 373.915C325.101 374.74 325.264 375.588 325.699 376.304C326.936 378.16 330.34 378.074 332.506 378.043C334.672 378.012 340.793 375.883 342 375.567L341.888 361.673C341.888 361.673 332.122 359.062 329.579 359.464C327.45 359.804 323.322 361.327 322.802 362.911Z" fill="#D3766A"/>
<path d="M323.681 365.04C325.872 364.13 328.211 363.926 330.538 363.579C330.588 363.579 330.6 363.654 330.538 363.66C328.223 363.976 325.995 364.743 323.73 365.151C323.716 365.155 323.701 365.153 323.688 365.147C323.675 365.141 323.665 365.13 323.659 365.116C323.653 365.103 323.652 365.088 323.656 365.074C323.66 365.06 323.669 365.048 323.681 365.04Z" fill="#263238"/>
<path d="M324.318 369.131C324.835 368.976 325.37 368.889 325.909 368.871C326.484 368.815 327.054 368.766 327.623 368.735C328.768 368.66 329.919 368.611 331.064 368.599C331.114 368.599 331.126 368.679 331.064 368.679C329.919 368.753 328.781 368.846 327.642 368.97C327.079 369.032 326.509 369.094 325.94 369.168C325.407 369.265 324.866 369.306 324.325 369.292C324.308 369.286 324.294 369.275 324.284 369.261C324.273 369.247 324.268 369.231 324.267 369.213C324.266 369.196 324.271 369.179 324.28 369.164C324.289 369.149 324.303 369.138 324.318 369.131Z" fill="#263238"/>
<path d="M325.29 373.915C325.76 373.778 326.25 373.723 326.738 373.754L328.304 373.673C329.35 373.618 330.396 373.562 331.436 373.469C331.485 373.469 331.497 373.55 331.436 373.55C330.377 373.649 329.319 373.766 328.261 373.853L326.701 373.977C326.23 374.06 325.748 374.06 325.278 373.977C325.278 373.977 325.271 373.921 325.29 373.915Z" fill="#263238"/>
<path d="M356.271 351.932L368.03 355.026C368.03 355.026 368.135 345.211 366.223 340.173C364.31 335.136 362.212 336.714 360.535 340.322C358.858 343.93 356.271 351.932 356.271 351.932Z" fill="#EBEBEB"/>
<path d="M357.36 350.249C357.28 350.249 357.268 350.174 357.36 350.187C360.69 350.842 363.976 351.702 367.201 352.761C367.201 352.761 367.201 352.811 367.201 352.805C365.511 352.588 358.208 350.453 357.36 350.249Z" fill="#263238"/>
<path d="M380.123 315.059C382.754 315.152 385.306 315.977 387.493 317.442C389.68 318.908 391.414 320.954 392.501 323.352L380.927 322.956L378.452 329.176L380.463 335.55L392.043 335.965C390.84 338.18 389.068 340.034 386.909 341.335C384.75 342.635 382.283 343.336 379.762 343.363C377.242 343.391 374.76 342.744 372.573 341.491C370.386 340.237 368.574 338.423 367.324 336.234C366.074 334.045 365.431 331.563 365.462 329.042C365.493 326.522 366.197 324.056 367.5 321.898C368.804 319.741 370.66 317.972 372.877 316.772C375.094 315.573 377.592 314.988 380.111 315.078L380.123 315.059Z" fill="#455A64"/>
<path d="M297.861 340.421C295.23 340.328 292.678 339.503 290.491 338.038C288.304 336.572 286.57 334.526 285.484 332.128L297.057 332.543L299.532 326.354L297.521 319.973L285.942 319.558C287.144 317.343 288.917 315.489 291.076 314.188C293.235 312.888 295.703 312.188 298.223 312.16C300.744 312.133 303.226 312.78 305.413 314.034C307.6 315.288 309.412 317.103 310.662 319.292C311.912 321.481 312.554 323.965 312.522 326.485C312.491 329.006 311.786 331.472 310.481 333.629C309.177 335.786 307.319 337.555 305.102 338.754C302.884 339.952 300.387 340.536 297.867 340.446L297.861 340.421Z" fill="#455A64"/>
<path d="M306.427 320.262L305.977 332.854L374.734 335.316L375.184 322.723L306.427 320.262Z" fill="#455A64"/>
<path d="M326.572 324.703L326.385 329.892L354.699 330.91L354.886 325.721L326.572 324.703Z" fill="#37474F"/>
<path d="M355.207 339.356C356.711 339.653 360.288 337.283 361.872 335.074C361.977 334.925 361.94 333.18 361.99 331.063C362.027 329.782 362.095 328.353 362.256 327.053L353.864 328.037C354.128 329.719 354.188 331.427 354.043 333.124C354.017 333.303 353.975 333.479 353.919 333.65C353.919 333.65 353.919 333.706 353.919 333.737C353.61 334.715 352.849 338.898 355.207 339.356Z" fill="#D3766A"/>
<path d="M353.919 333.65C353.924 333.679 353.924 333.708 353.919 333.737C354.194 333.809 354.473 333.858 354.755 333.886C359.489 334.356 361.377 328.687 361.804 327.115L353.882 328.037C354.15 329.719 354.212 331.427 354.068 333.124C354.03 333.303 353.981 333.478 353.919 333.65Z" fill="#263238"/>
<path d="M363.747 316.056C364.632 318.97 363.091 327.375 361.018 329.25C358.016 331.967 353.103 332.227 350.794 328.631C348.554 325.128 350.757 314.205 353.072 312.503C356.482 309.96 362.435 311.754 363.747 316.056Z" fill="#D3766A"/>
<path d="M356.742 321.236C356.742 321.236 356.779 321.273 356.742 321.291C356.593 321.848 356.525 322.529 356.995 322.814C356.995 322.814 356.995 322.851 356.995 322.814C356.407 322.622 356.506 321.718 356.742 321.236Z" fill="#263238"/>
<path d="M357.36 320.759C358.276 320.895 357.942 322.721 357.094 322.616C356.246 322.51 356.593 320.648 357.36 320.759Z" fill="#263238"/>
<path d="M353.195 320.542C353.195 320.542 353.146 320.542 353.146 320.58C353.059 321.149 352.861 321.817 352.317 321.885C352.96 321.941 353.208 321.099 353.195 320.542Z" fill="#263238"/>
<path d="M352.799 319.862C351.902 319.626 351.493 321.44 352.329 321.656C353.164 321.873 353.554 320.054 352.799 319.862Z" fill="#263238"/>
<path d="M358.239 320.054C358.012 319.94 357.791 319.814 357.577 319.676C357.323 319.527 357.107 319.435 356.958 319.162C356.928 319.08 356.926 318.991 356.953 318.908C356.98 318.825 357.034 318.753 357.107 318.704C357.263 318.629 357.437 318.597 357.61 318.611C357.783 318.625 357.949 318.685 358.091 318.785C358.409 318.941 358.658 319.21 358.79 319.54C358.812 319.615 358.813 319.695 358.793 319.77C358.772 319.845 358.731 319.914 358.674 319.967C358.616 320.02 358.545 320.057 358.469 320.072C358.392 320.087 358.313 320.081 358.239 320.054Z" fill="#263238"/>
<path d="M352.292 319.026C352.546 319.023 352.801 319.004 353.053 318.97C353.324 318.989 353.594 318.917 353.82 318.766C353.882 318.705 353.922 318.625 353.933 318.539C353.945 318.452 353.927 318.365 353.882 318.29C353.774 318.154 353.632 318.05 353.469 317.987C353.307 317.925 353.131 317.908 352.96 317.937C352.604 317.937 352.261 318.072 352.001 318.314C351.945 318.373 351.907 318.447 351.891 318.527C351.876 318.607 351.885 318.689 351.915 318.765C351.946 318.84 351.998 318.905 352.065 318.951C352.132 318.998 352.21 319.024 352.292 319.026Z" fill="#263238"/>
<path d="M355.807 326.57C355.662 326.714 355.472 326.801 355.269 326.818C355.059 326.776 354.86 326.69 354.687 326.564C354.687 326.564 354.65 326.564 354.687 326.564C354.749 326.69 354.844 326.797 354.962 326.874C355.079 326.952 355.215 326.996 355.355 327.004C355.475 326.993 355.59 326.947 355.684 326.873C355.779 326.798 355.849 326.697 355.887 326.583C355.875 326.577 355.832 326.558 355.807 326.57Z" fill="#263238"/>
<path d="M355.504 324.769C355.319 324.966 355.096 325.123 354.847 325.229C354.599 325.336 354.332 325.39 354.062 325.388C353.825 325.391 353.59 325.36 353.362 325.295L353.233 325.258L353.109 325.215C353.081 325.202 353.057 325.181 353.042 325.155C353.026 325.128 353.019 325.097 353.022 325.066C353.019 325.048 353.019 325.029 353.022 325.011V324.961C353.09 324.528 353.257 323.872 353.257 323.872C353.078 323.922 352.199 324.138 352.255 323.909C352.666 321.952 353.275 320.042 354.074 318.209C354.082 318.2 354.092 318.194 354.103 318.19C354.114 318.187 354.126 318.188 354.137 318.192C354.148 318.196 354.157 318.204 354.164 318.213C354.17 318.223 354.174 318.235 354.173 318.246C353.802 320.054 353.121 321.786 352.719 323.6C353.032 323.519 353.355 323.483 353.678 323.494C353.74 323.494 353.344 324.732 353.325 324.955C353.676 325.056 354.044 325.086 354.406 325.043C354.769 324.999 355.119 324.883 355.436 324.701C355.504 324.683 355.566 324.726 355.504 324.769Z" fill="#263238"/>
<path d="M353.678 325.122C353.86 325.478 354.131 325.781 354.464 326.001C354.65 326.114 354.866 326.166 355.083 326.15C355.553 326.15 355.646 325.704 355.628 325.333C355.613 325.135 355.578 324.94 355.522 324.751C354.962 325.067 354.317 325.197 353.678 325.122Z" fill="#263238"/>
<path d="M354.464 326.001C354.65 326.114 354.866 326.166 355.083 326.15C355.553 326.15 355.646 325.704 355.628 325.333C355.387 325.297 355.141 325.344 354.93 325.465C354.719 325.586 354.555 325.775 354.464 326.001Z" fill="#FF9BBC"/>
<path d="M351.673 314.626C351.797 314.385 352.137 313.797 352.465 313.815C352.793 313.834 353.084 314.552 353.858 314.83C354.922 315.239 356.952 314.211 358.425 314.756C359.898 315.301 360.665 316.823 360.715 319.534C360.764 322.244 362.683 324.602 363.444 322.894C363.444 322.832 363.512 322.721 363.586 322.56C364.044 320.01 364.168 317.423 363.747 316.056C362.435 311.754 356.475 309.978 353.072 312.491C352.439 313.078 351.958 313.811 351.673 314.626Z" fill="#263238"/>
<path d="M361.946 322.907C361.946 322.907 363.902 320.227 365.121 320.932C366.34 321.638 364.83 325.549 363.37 326.057C363.188 326.136 362.991 326.177 362.792 326.177C362.594 326.178 362.397 326.139 362.214 326.061C362.031 325.984 361.866 325.87 361.729 325.726C361.591 325.583 361.484 325.413 361.414 325.227L361.946 322.907Z" fill="#D3766A"/>
<path d="M364.663 322.046C364.663 322.046 364.663 322.077 364.663 322.083C364.192 322.305 363.773 322.624 363.432 323.018C363.092 323.413 362.839 323.874 362.689 324.373C362.749 324.27 362.832 324.181 362.931 324.113C363.03 324.045 363.143 324 363.261 323.982C363.379 323.963 363.5 323.97 363.616 324.004C363.731 324.037 363.837 324.096 363.927 324.175C363.927 324.175 363.927 324.237 363.927 324.231C363.75 324.171 363.559 324.166 363.38 324.218C363.2 324.27 363.041 324.376 362.924 324.522C362.732 324.771 362.567 325.038 362.429 325.32C362.38 325.413 362.212 325.357 362.25 325.258C362.225 323.934 363.271 322.145 364.663 322.046Z" fill="#263238"/>
<path d="M350.454 315.758C350.454 315.758 352.929 307.67 360.176 309.842C367.423 312.014 365.041 320.134 365.041 320.134L350.454 315.758Z" fill="#F1AD00"/>
<path d="M365.741 319.739L350.068 315.037L349.723 316.187L365.396 320.889L365.741 319.739Z" fill="#F1AD00"/>
<path d="M357.8 317.337L354.538 316.359L357.688 308.641L360.95 309.619L357.8 317.337Z" fill="#F1AD00"/>
<path opacity="0.1" d="M357.8 317.337L354.538 316.359L357.688 308.641L360.95 309.619L357.8 317.337Z" fill="black"/>
<path d="M314.088 329.201C315.666 330.265 316.019 327.79 316.019 327.79C316.019 327.79 316.372 331.503 318.433 331.942C320.494 332.382 320.735 329.38 320.76 329.17C320.76 329.361 321.193 332.741 323.31 333.001C325.426 333.26 325.309 330.191 325.296 329.993C325.377 330.172 326.435 332.505 328.087 332.338C330.922 332.041 328.459 325.116 329.424 323.018L333.62 322.059C332.546 321.79 331.572 321.216 330.817 320.406C329.69 319.268 328.96 318.506 328.001 318.191C327.578 318.036 327.117 318.021 326.685 318.15C326.254 318.278 325.875 318.542 325.606 318.902C325.606 318.902 325.067 316.947 323.409 316.693C322.555 316.563 321.589 317.813 321.589 317.813C321.445 317.38 321.183 316.995 320.834 316.701C320.484 316.408 320.06 316.216 319.609 316.148C318.42 316.037 317.634 317.312 317.634 317.312C317.634 317.312 316.471 316.074 315.221 316.328C312.696 316.866 310.697 326.911 314.088 329.201Z" fill="#D3766A"/>
<path d="M330.352 322.647L333.534 322.065L333.868 321.916C337.581 320.109 338.769 314.948 335.842 315.418C333.614 315.777 332.079 319.286 329.746 319.323L330.352 322.647Z" fill="#D3766A"/>
<path d="M317.48 317.473H317.43C315.907 320.725 315.404 324.363 315.988 327.907C315.988 328.019 316.199 328.037 316.199 327.907C316.12 324.385 316.552 320.871 317.48 317.473Z" fill="#263238"/>
<path d="M321.583 317.757C321.583 317.72 321.527 317.702 321.509 317.757C319.86 321.372 319.553 325.455 320.642 329.275C320.686 329.411 320.859 329.485 320.822 329.331C320.228 326.669 320.661 320.939 321.583 317.757Z" fill="#263238"/>
<path d="M325.476 330.234C324.442 326.521 324.708 322.808 325.531 319.032C325.531 318.983 325.476 318.97 325.451 319.032C324.547 320.765 324.275 323.216 324.213 325.141C324.131 326.927 324.517 328.705 325.333 330.296C325.377 330.333 325.5 330.315 325.476 330.234Z" fill="#263238"/>
<path d="M460.361 89.5257L488.37 119.228L485.48 121.953L457.47 92.251L460.361 89.5257Z" fill="#263238"/>
<path d="M458.235 119.855H486.92V123.827H458.235V119.855Z" fill="#455A64"/>
<path d="M458.235 88.9011H486.92V92.8736H458.235V88.9011Z" fill="#455A64"/>
<path d="M485.478 89.5149L488.369 92.2398L460.364 121.947L457.474 119.222L485.478 89.5149Z" fill="#455A64"/>
<path d="M460.364 120.477L488.374 150.179L485.484 152.904L457.474 123.202L460.364 120.477Z" fill="#263238"/>
<path d="M458.235 150.808H486.92V154.78H458.235V150.808Z" fill="#455A64"/>
<path d="M458.235 119.855H486.92V123.827H458.235V119.855Z" fill="#455A64"/>
<path d="M485.484 120.468L488.375 123.193L460.371 152.9L457.48 150.175L485.484 120.468Z" fill="#455A64"/>
<path d="M460.368 151.428L488.378 181.13L485.487 183.855L457.478 154.153L460.368 151.428Z" fill="#263238"/>
<path d="M458.235 181.762H486.92V185.734H458.235V181.762Z" fill="#455A64"/>
<path d="M458.235 150.808H486.92V154.78H458.235V150.808Z" fill="#455A64"/>
<path d="M485.477 151.421L488.368 154.146L460.364 183.853L457.473 181.128L485.477 151.421Z" fill="#455A64"/>
<path d="M460.359 182.379L488.368 212.081L485.478 214.806L457.469 185.104L460.359 182.379Z" fill="#263238"/>
<path d="M458.235 212.715H486.92V216.687H458.235V212.715Z" fill="#455A64"/>
<path d="M458.235 181.762H486.92V185.734H458.235V181.762Z" fill="#455A64"/>
<path d="M485.471 182.375L488.361 185.1L460.357 214.807L457.467 212.082L485.471 182.375Z" fill="#455A64"/>
<path d="M460.363 213.343L488.372 243.045L485.482 245.77L457.473 216.068L460.363 213.343Z" fill="#263238"/>
<path d="M458.235 243.668H486.92V247.641H458.235V243.668Z" fill="#455A64"/>
<path d="M458.235 212.715H486.92V216.687H458.235V212.715Z" fill="#455A64"/>
<path d="M485.473 213.319L488.364 216.044L460.359 245.75L457.469 243.025L485.473 213.319Z" fill="#455A64"/>
<path d="M460.354 244.294L488.363 273.996L485.473 276.721L457.464 247.02L460.354 244.294Z" fill="#263238"/>
<path d="M458.235 274.609H486.92V278.581H458.235V274.609Z" fill="#455A64"/>
<path d="M458.235 243.668H486.92V247.641H458.235V243.668Z" fill="#455A64"/>
<path d="M485.479 244.272L488.37 246.997L460.366 276.704L457.475 273.979L485.479 244.272Z" fill="#455A64"/>
<path d="M460.367 275.236L488.376 304.938L485.486 307.664L457.477 277.962L460.367 275.236Z" fill="#263238"/>
<path d="M458.235 305.562H486.92V309.535H458.235V305.562Z" fill="#455A64"/>
<path d="M458.235 274.609H486.92V278.581H458.235V274.609Z" fill="#455A64"/>
<path d="M485.473 275.212L488.363 277.937L460.359 307.644L457.469 304.919L485.473 275.212Z" fill="#455A64"/>
<path d="M460.358 306.174L488.367 335.876L485.477 338.601L457.468 308.899L460.358 306.174Z" fill="#263238"/>
<path d="M458.235 336.516H486.92V340.488H458.235V336.516Z" fill="#455A64"/>
<path d="M458.235 305.562H486.92V309.535H458.235V305.562Z" fill="#455A64"/>
<path d="M485.466 306.166L488.356 308.89L460.352 338.597L457.462 335.872L485.466 306.166Z" fill="#455A64"/>
<path d="M460.348 337.112L488.358 366.814L485.468 369.539L457.458 339.838L460.348 337.112Z" fill="#263238"/>
<path d="M458.235 367.469H486.92V371.442H458.235V367.469Z" fill="#455A64"/>
<path d="M458.235 336.516H486.92V340.488H458.235V336.516Z" fill="#455A64"/>
<path d="M485.472 337.119L488.363 339.844L460.359 369.551L457.468 366.826L485.472 337.119Z" fill="#455A64"/>
<path d="M460.361 368.088L488.36 397.799L485.469 400.524L457.47 370.812L460.361 368.088Z" fill="#263238"/>
<path d="M458.235 398.423H486.92V402.395H458.235V398.423Z" fill="#455A64"/>
<path d="M458.235 367.469H486.92V371.442H458.235V367.469Z" fill="#455A64"/>
<path d="M485.465 368.085L488.356 370.81L460.352 400.517L457.461 397.792L485.465 368.085Z" fill="#455A64"/>
<path d="M460.37 399.031L488.369 428.743L485.478 431.467L457.479 401.755L460.37 399.031Z" fill="#263238"/>
<path d="M458.235 429.376H486.92V433.349H458.235V429.376Z" fill="#455A64"/>
<path d="M458.235 398.423H486.92V402.395H458.235V398.423Z" fill="#455A64"/>
<path d="M485.468 399.016L488.358 401.741L460.354 431.448L457.464 428.723L485.468 399.016Z" fill="#455A64"/>
<path d="M452.493 446.983V428.957H493.869V446.983H452.493Z" fill="#455A64"/>
<path d="M483.512 430.084V90.5268H493.882V430.084H483.512Z" fill="#455A64"/>
<path d="M452.493 430.084V90.5268H462.863V430.084H452.493Z" fill="#455A64"/>
<path d="M179.942 88.1014L210.935 57.5543L472.538 8.81016L552.039 57.7903L554.124 54.3947L473.312 4.61485L209.021 53.8703L177.15 85.2565L179.942 88.1014Z" fill="#455A64"/>
<path d="M440.995 61.8414L472.853 17.5548L503.348 61.7759L509.903 57.2528L472.997 3.73648L434.531 57.1873L440.995 61.8414Z" fill="#263238"/>
<path d="M240.106 61.1064L242.831 63.9969L213.124 92.001L210.399 89.1105L240.106 61.1064Z" fill="#263238"/>
<path d="M208.549 61.8414H212.521V90.5268H208.549V61.8414Z" fill="#455A64"/>
<path d="M239.502 61.8414H243.475V90.5268H239.502V61.8414Z" fill="#455A64"/>
<path d="M213.13 61.1022L242.837 89.1063L240.112 91.9968L210.405 63.9927L213.13 61.1022Z" fill="#455A64"/>
<path d="M271.066 61.1063L273.791 63.9968L244.084 92.0009L241.359 89.1104L271.066 61.1063Z" fill="#263238"/>
<path d="M239.502 61.8414H243.475V90.5268H239.502V61.8414Z" fill="#455A64"/>
<path d="M270.456 61.8414H274.428V90.5268H270.456V61.8414Z" fill="#455A64"/>
<path d="M244.115 61.0408L273.817 89.0501L271.092 91.9401L241.39 63.9309L244.115 61.0408Z" fill="#455A64"/>
<path d="M302.027 61.1061L304.751 63.9966L275.045 92.0007L272.32 89.1102L302.027 61.1061Z" fill="#263238"/>
<path d="M270.456 61.8414H274.428V90.5268H270.456V61.8414Z" fill="#455A64"/>
<path d="M301.409 61.8414H305.382V90.5268H301.409V61.8414Z" fill="#455A64"/>
<path d="M275.065 61.0384L304.767 89.0477L302.041 91.9378L272.339 63.9285L275.065 61.0384Z" fill="#455A64"/>
<path d="M332.974 61.106L335.699 63.9965L305.992 92.0006L303.267 89.1101L332.974 61.106Z" fill="#263238"/>
<path d="M301.409 61.8414H305.382V90.5268H301.409V61.8414Z" fill="#455A64"/>
<path d="M332.363 61.8414H336.335V90.5268H332.363V61.8414Z" fill="#455A64"/>
<path d="M306.014 61.0491L335.716 89.0584L332.991 91.9485L303.289 63.9392L306.014 61.0491Z" fill="#455A64"/>
<path d="M363.925 61.0963L366.65 63.9868L336.943 91.9909L334.218 89.1004L363.925 61.0963Z" fill="#263238"/>
<path d="M332.363 61.8414H336.335V90.5268H332.363V61.8414Z" fill="#455A64"/>
<path d="M363.303 61.8414H367.276V90.5268H363.303V61.8414Z" fill="#455A64"/>
<path d="M336.964 61.0598L366.666 89.0691L363.94 91.9592L334.239 63.9499L336.964 61.0598Z" fill="#455A64"/>
<path d="M394.872 61.0961L397.597 63.9867L367.89 91.9908L365.165 89.1002L394.872 61.0961Z" fill="#263238"/>
<path d="M363.303 61.8414H367.276V90.5268H363.303V61.8414Z" fill="#455A64"/>
<path d="M394.257 61.8414H398.229V90.5268H394.257V61.8414Z" fill="#455A64"/>
<path d="M367.914 61.0574L397.615 89.0667L394.89 91.9568L365.188 63.9475L367.914 61.0574Z" fill="#455A64"/>
<path d="M425.832 61.096L428.557 63.9865L398.85 91.9906L396.126 89.1001L425.832 61.096Z" fill="#263238"/>
<path d="M394.257 61.8414H398.229V90.5268H394.257V61.8414Z" fill="#455A64"/>
<path d="M425.21 61.8414H429.183V90.5268H425.21V61.8414Z" fill="#455A64"/>
<path d="M398.854 61.0591L428.555 89.0684L425.83 91.9585L396.128 63.9492L398.854 61.0591Z" fill="#455A64"/>
<path d="M456.779 61.0959L459.504 63.9864L429.798 91.9905L427.073 89.1L456.779 61.0959Z" fill="#263238"/>
<path d="M425.21 61.8414H429.183V90.5268H425.21V61.8414Z" fill="#455A64"/>
<path d="M456.163 61.8414H460.136V90.5268H456.163V61.8414Z" fill="#455A64"/>
<path d="M429.803 61.0567L459.505 89.066L456.78 91.9561L427.078 63.9468L429.803 61.0567Z" fill="#455A64"/>
<path d="M487.74 61.0957L490.465 63.9863L460.758 91.9903L458.033 89.0998L487.74 61.0957Z" fill="#263238"/>
<path d="M456.163 61.8414H460.136V90.5268H456.163V61.8414Z" fill="#455A64"/>
<path d="M487.117 61.8414H491.089V90.5268H487.117V61.8414Z" fill="#455A64"/>
<path d="M460.766 61.0543L490.468 89.0636L487.742 91.9537L458.041 63.9444L460.766 61.0543Z" fill="#455A64"/>
<path d="M518.687 61.0955L521.412 63.9861L491.705 91.9902L488.98 89.0996L518.687 61.0955Z" fill="#263238"/>
<path d="M487.117 61.8414H491.089V90.5268H487.117V61.8414Z" fill="#455A64"/>
<path d="M518.07 61.8414H522.043V90.5268H518.07V61.8414Z" fill="#455A64"/>
<path d="M491.716 61.0519L521.418 89.0612L518.692 91.9513L488.99 63.942L491.716 61.0519Z" fill="#455A64"/>
<path d="M548.918 61.3113L551.659 64.2112L521.856 92.3808L519.115 89.481L548.918 61.3113Z" fill="#263238"/>
<path d="M518.07 61.8414H522.043V90.5268H518.07V61.8414Z" fill="#455A64"/>
<path d="M549.024 61.8414H552.996V90.5268H549.024V61.8414Z" fill="#455A64"/>
<path d="M522.665 61.0626L552.367 89.0719L549.642 91.962L519.94 63.9527L522.665 61.0626Z" fill="#455A64"/>
<path d="M554.163 54.3292H572.164V95.7054H554.163V54.3292Z" fill="#263238"/>
<path d="M536.137 54.3292H554.163V95.7054H536.137V54.3292Z" fill="#455A64"/>
<path d="M512.341 95.7054H546.9V116.341H512.341V95.7054Z" fill="#455A64"/>
<path d="M177.15 85.3351H554.163V95.7054H177.15V85.3351Z" fill="#455A64"/>
<path d="M198.664 64.6995H554.163V54.3292H208.798L198.664 64.6995Z" fill="#455A64"/>
<path d="M201.771 61.8414H205.743V90.5268H201.771V61.8414Z" fill="#455A64"/>
<path d="M351.879 204.365L326.97 200.38L302.06 196.525L252.188 189.013L252.057 189L251.926 189.026L168.938 210.553L127.457 221.422L86.0282 232.434L127.627 222.064L169.187 211.537L252.254 190.285L251.992 190.298L301.916 197.495L326.878 200.996L351.879 204.365Z" fill="#263238"/>
<path d="M262.432 99.94H266.405V158.674H262.432V99.94Z" fill="#263238"/>
<path d="M228.778 101.251H232.751V159.985H228.778V101.251Z" fill="#263238"/>
<path d="M221.082 95.7054H273.537V104.162H221.082V95.7054Z" fill="#455A64"/>
<path d="M245.323 168.546L245.769 177.37L247.08 175.849C245.661 176.214 244.308 176.798 243.068 177.579C241.79 178.348 240.712 179.408 239.922 180.673C239.161 181.949 238.777 183.414 238.814 184.899C238.851 186.384 239.308 187.828 240.132 189.064C240.902 190.231 241.958 191.181 243.2 191.824C244.441 192.466 245.827 192.78 247.224 192.735C248.546 192.627 249.825 192.216 250.961 191.534C252.098 190.852 253.063 189.917 253.779 188.802C253.001 189.793 252.005 190.592 250.868 191.138C249.732 191.683 248.485 191.961 247.224 191.948C246.026 191.874 244.866 191.496 243.855 190.849C242.843 190.202 242.013 189.308 241.443 188.251C240.911 187.269 240.666 186.157 240.736 185.042C240.805 183.927 241.187 182.854 241.836 181.945C243.323 180.252 245.381 179.164 247.618 178.89L248.824 178.681L248.889 177.37L249.322 168.546H245.323Z" fill="#263238"/>
<path d="M221.082 150.454V164.849L247.316 171.077L273.537 164.849V150.454H221.082Z" fill="#455A64"/>
<path d="M261.501 158.897C261.499 159.502 261.676 160.094 262.01 160.598C262.344 161.102 262.82 161.495 263.378 161.729C263.936 161.962 264.551 162.024 265.144 161.908C265.737 161.792 266.283 161.502 266.712 161.075C267.14 160.648 267.432 160.104 267.551 159.511C267.67 158.918 267.61 158.303 267.38 157.744C267.149 157.185 266.757 156.708 266.255 156.371C265.752 156.035 265.161 155.856 264.556 155.856C264.156 155.854 263.759 155.931 263.388 156.083C263.018 156.235 262.681 156.459 262.397 156.742C262.113 157.024 261.888 157.36 261.734 157.73C261.581 158.1 261.501 158.497 261.501 158.897Z" fill="#263238"/>
<path d="M227.034 158.897C227.034 159.499 227.213 160.087 227.547 160.587C227.881 161.087 228.356 161.477 228.912 161.707C229.468 161.937 230.079 161.998 230.669 161.88C231.259 161.763 231.801 161.473 232.227 161.048C232.652 160.623 232.942 160.081 233.059 159.491C233.177 158.901 233.116 158.289 232.886 157.733C232.656 157.177 232.266 156.702 231.766 156.368C231.266 156.034 230.678 155.856 230.076 155.856C229.269 155.856 228.496 156.176 227.925 156.746C227.355 157.317 227.034 158.09 227.034 158.897Z" fill="#263238"/>
<path d="M360.034 264.329L92.5275 293.106L86 232.428L353.507 203.651L360.034 264.329Z" fill="#F1AD00"/>
<path d="M208.903 270.964L86.2426 284.166L144.033 244.573L208.903 270.964Z" fill="#F1AD00"/>
<path opacity="0.2" d="M208.903 270.964L86.2426 284.166L144.033 244.573L208.903 270.964Z" fill="black"/>
<path d="M269.302 264.501L160.526 276.208L212.6 248.873L269.302 264.501Z" fill="#F1AD00"/>
<path opacity="0.1" d="M269.302 264.501L160.526 276.208L212.6 248.873L269.302 264.501Z" fill="black"/>
<path d="M86.2611 284.185L353.768 255.408L355.174 268.483L87.6676 297.26L86.2611 284.185Z" fill="#F1AD00"/>
<path opacity="0.1" d="M86.2611 284.185L353.768 255.408L355.174 268.483L87.6676 297.26L86.2611 284.185Z" fill="black"/>
<path opacity="0.6" d="M315.647 231.45C315.83 233.079 316.492 234.618 317.549 235.872C318.606 237.126 320.011 238.038 321.586 238.495C323.161 238.951 324.836 238.93 326.399 238.435C327.963 237.94 329.344 236.993 330.37 235.713C331.395 234.433 332.019 232.879 332.161 231.245C332.304 229.611 331.959 227.972 331.171 226.534C330.383 225.096 329.186 223.924 327.732 223.165C326.278 222.407 324.632 222.096 323.002 222.272C321.915 222.388 320.861 222.718 319.902 223.243C318.943 223.767 318.098 224.477 317.414 225.33C316.73 226.183 316.222 227.163 315.919 228.213C315.616 229.264 315.523 230.363 315.647 231.45Z" fill="white"/>
<path d="M466.18 6.7125C466.18 8.0401 466.573 9.3379 467.311 10.4418C468.049 11.5456 469.097 12.406 470.323 12.914C471.55 13.4221 472.9 13.555 474.202 13.296C475.504 13.037 476.7 12.3977 477.639 11.4589C478.577 10.5202 479.217 9.32414 479.476 8.02204C479.735 6.71995 479.602 5.37029 479.094 4.14374C478.586 2.9172 477.725 1.86885 476.622 1.13127C475.518 0.393692 474.22 1.52588e-05 472.892 1.52588e-05C471.112 1.52588e-05 469.405 0.707218 468.146 1.96605C466.887 3.22489 466.18 4.93224 466.18 6.7125Z" fill="#A6A6A6"/>
<path d="M469.785 6.71251C469.783 7.33593 469.965 7.94608 470.31 8.46552C470.655 8.98496 471.146 9.39028 471.722 9.63005C472.297 9.86982 472.931 9.93324 473.542 9.81225C474.154 9.69126 474.716 9.39132 475.157 8.95049C475.597 8.50966 475.897 7.94781 476.018 7.33623C476.139 6.72466 476.076 6.09093 475.836 5.51545C475.596 4.93997 475.191 4.44869 474.672 4.10395C474.152 3.75921 473.542 3.57655 472.919 3.57914C472.088 3.57914 471.291 3.90927 470.703 4.49689C470.115 5.08451 469.785 5.88149 469.785 6.71251Z" fill="#455A64"/>
<path d="M444.22 446.983H502.141V460.671H444.22V446.983Z" fill="#263238"/>
<path d="M431.66 460.671H514.701V487.52H431.66V460.671Z" fill="#455A64"/>
<path d="M439.5 119.645H501.486V50.986H460.936C457.509 50.9848 454.198 52.2286 451.62 54.4859C449.042 56.7433 447.372 59.8605 446.921 63.2573L439.5 119.645Z" fill="#F1AD00"/>
<path d="M456.373 98.7994H485.426C485.742 98.806 486.057 98.7572 486.357 98.6552C487.03 98.4526 487.621 98.0385 488.041 97.4742C488.462 96.91 488.689 96.2254 488.69 95.5218V58.8523H468.028C467.333 58.8443 466.639 58.9102 465.957 59.0489C464.405 59.3142 462.926 59.9039 461.617 60.7795C460.709 61.3854 459.896 62.1233 459.205 62.9689C457.787 64.6406 456.877 66.6832 456.583 68.8554L453.096 95.0761C453.036 95.5416 453.076 96.0145 453.214 96.4633C453.351 96.912 453.583 97.3263 453.893 97.6786C454.203 98.0309 454.585 98.313 455.012 98.5063C455.44 98.6996 455.904 98.7995 456.373 98.7994Z" fill="#263238"/>
<g opacity="0.4">
<path opacity="0.4" d="M459.493 79.6714C459.492 80.0984 459.576 80.5213 459.74 80.9154C459.904 81.3094 460.146 81.6665 460.451 81.9657L477.271 98.7994H485.426C485.742 98.806 486.057 98.7572 486.357 98.6552L465.052 77.364C464.595 76.9123 464.015 76.6056 463.384 76.4824C462.753 76.3591 462.1 76.4248 461.506 76.6712C460.913 76.9176 460.405 77.3338 460.047 77.8675C459.689 78.4012 459.496 79.0287 459.493 79.6714Z" fill="white"/>
<path opacity="0.4" d="M459.205 62.982L488.69 92.454V87.8654L461.617 60.7926C460.709 61.3984 459.896 62.1364 459.205 62.982Z" fill="white"/>
<path opacity="0.4" d="M465.957 59.062L482.699 75.8039C483.042 76.1456 483.478 76.3781 483.953 76.4722C484.428 76.5663 484.92 76.5178 485.367 76.3327C485.814 76.1477 486.197 75.8343 486.466 75.4323C486.735 75.0302 486.88 74.5574 486.881 74.0734C486.879 73.7558 486.814 73.4418 486.69 73.1493C486.567 72.8568 486.386 72.5917 486.16 72.369L472.656 58.8523H468.028C467.332 58.8486 466.638 58.9189 465.957 59.062Z" fill="white"/>
</g>
</svg>
