<svg width="34" height="34" viewBox="0 0 34 34" fill="none" xmlns="http://www.w3.org/2000/svg">
<g clip-path="url(#clip0_217_1337)">
<path d="M32.6654 12.8933C32.9188 12.6919 33.2956 12.8803 33.2956 13.1986V26.4847C33.2956 28.2064 31.8988 29.6032 30.1771 29.6032H3.15023C1.42856 29.6032 0.0317383 28.2064 0.0317383 26.4847V13.2051C0.0317383 12.8803 0.402059 12.6984 0.661933 12.8998C2.11723 14.0302 4.04679 15.466 10.6736 20.2802C12.0444 21.2807 14.3573 23.3857 16.6637 23.3727C18.9831 23.3922 21.3414 21.2417 22.6603 20.2802C29.2871 15.466 31.2101 14.0237 32.6654 12.8933ZM16.6637 21.2872C18.171 21.3132 20.3409 19.3901 21.4324 18.5975C30.0537 12.3411 30.7099 11.7953 32.6979 10.2361C33.0747 9.94371 33.2956 9.48893 33.2956 9.00817V7.77376C33.2956 6.0521 31.8988 4.65527 30.1771 4.65527H3.15023C1.42856 4.65527 0.0317383 6.0521 0.0317383 7.77376V9.00817C0.0317383 9.48893 0.252631 9.93721 0.629449 10.2361C2.61749 11.7888 3.27367 12.3411 11.895 18.5975C12.9865 19.3901 15.1564 21.3132 16.6637 21.2872Z" fill="white"/>
</g>
<defs>
<clipPath id="clip0_217_1337">
<rect width="33.2639" height="33.2639" fill="white" transform="translate(0.0317383 0.49707)"/>
</clipPath>
</defs>
</svg>
