<svg width="55" height="56" viewBox="0 0 55 56" fill="none" xmlns="http://www.w3.org/2000/svg">
<path d="M10.6953 23.2088C10.647 23.2747 10.6067 23.3461 10.5753 23.4216C10.5753 23.4216 10.5753 23.4488 10.5753 23.4652C10.5516 23.5412 10.5388 23.6202 10.5371 23.6998C10.5388 23.7812 10.5516 23.8619 10.5753 23.9398C10.5753 23.9398 10.5753 23.9671 10.5753 23.978C10.6054 24.0541 10.6458 24.1257 10.6953 24.1908L26.652 44.2116C26.6907 44.2653 26.7387 44.3115 26.7939 44.348H26.8266C26.8786 44.3863 26.9355 44.4174 26.9957 44.4407H27.0557C27.208 44.4915 27.3726 44.4915 27.5249 44.4407H27.5849C27.6451 44.4174 27.702 44.3863 27.754 44.348H27.7867C27.8419 44.3115 27.8899 44.2653 27.9286 44.2116L43.8853 24.1908C43.9989 24.045 44.0607 23.8655 44.0607 23.6807C44.0607 23.4959 43.9989 23.3163 43.8853 23.1706L37.7917 15.5332C37.7136 15.438 37.6154 15.3612 37.5041 15.3083C37.3928 15.2555 37.2712 15.228 37.148 15.2277H17.4381C17.3149 15.228 17.1933 15.2555 17.082 15.3083C16.9707 15.3612 16.8724 15.438 16.7943 15.5332L10.7008 23.1706C10.7008 23.1706 10.6953 23.2033 10.6953 23.2088ZM20.8803 24.5235L25.3591 39.9783L13.0411 24.5235H20.8803ZM41.5504 24.5235L29.2324 39.9783L33.7112 24.5235H41.5504ZM27.2958 40.7857L22.5824 24.5235H32.0091L27.2958 40.7857ZM41.5504 22.8869H33.7112L31.9709 16.8861H36.7607L41.5504 22.8869ZM30.2689 16.8861L32.0091 22.8869H22.5824L24.3226 16.8861H30.2689ZM17.8308 16.8861H22.6206L20.8803 22.8869H13.0411L17.8308 16.8861ZM12.2992 14.3112C12.3749 14.3875 12.465 14.448 12.5643 14.4892C12.6635 14.5304 12.77 14.5515 12.8775 14.5513C13.0941 14.5493 13.3014 14.4633 13.4557 14.3112C13.6076 14.1571 13.6928 13.9494 13.6928 13.733C13.6928 13.5166 13.6076 13.3089 13.4557 13.1547L10.5153 10.2143C10.3602 10.0698 10.155 9.9911 9.94304 9.99484C9.73104 9.99858 9.52878 10.0845 9.37885 10.2344C9.22893 10.3843 9.14305 10.5866 9.13931 10.7986C9.13557 11.0106 9.21426 11.2157 9.3588 11.3708L12.2992 14.3112ZM6.90392 27.333H2.747C2.52998 27.333 2.32184 27.4192 2.16838 27.5727C2.01492 27.7261 1.92871 27.9343 1.92871 28.1513C1.92871 28.3683 2.01492 28.5764 2.16838 28.7299C2.32184 28.8834 2.52998 28.9696 2.747 28.9696H6.90392C7.12095 28.9696 7.32908 28.8834 7.48254 28.7299C7.636 28.5764 7.72222 28.3683 7.72222 28.1513C7.72222 27.9343 7.636 27.7261 7.48254 27.5727C7.32908 27.4192 7.12095 27.333 6.90392 27.333ZM12.2992 41.9913L9.3588 44.9317C9.28227 45.0073 9.2215 45.0974 9.18003 45.1966C9.13856 45.2959 9.11721 45.4024 9.11721 45.51C9.11721 45.6176 9.13856 45.7241 9.18003 45.8233C9.2215 45.9226 9.28227 46.0126 9.3588 46.0882C9.51223 46.2415 9.72021 46.3275 9.93706 46.3275C10.1539 46.3275 10.3619 46.2415 10.5153 46.0882L13.4557 43.1478C13.6003 42.9927 13.6789 42.7876 13.6752 42.5756C13.6715 42.3636 13.5856 42.1613 13.4357 42.0114C13.2857 41.8615 13.0835 41.7756 12.8715 41.7718C12.6595 41.7681 12.4543 41.8468 12.2992 41.9913ZM27.2958 47.7248C27.0787 47.7248 26.8706 47.811 26.7171 47.9645C26.5637 48.118 26.4775 48.3261 26.4775 48.5431V52.7C26.4775 52.9171 26.5637 53.1252 26.7171 53.2787C26.8706 53.4321 27.0787 53.5183 27.2958 53.5183C27.5128 53.5183 27.7209 53.4321 27.8744 53.2787C28.0278 53.1252 28.114 52.9171 28.114 52.7V48.5431C28.114 48.3261 28.0278 48.118 27.8744 47.9645C27.7209 47.811 27.5128 47.7248 27.2958 47.7248ZM42.2923 41.9913C42.1372 41.8468 41.932 41.7681 41.72 41.7718C41.508 41.7756 41.3058 41.8615 41.1558 42.0114C41.0059 42.1613 40.92 42.3636 40.9163 42.5756C40.9126 42.7876 40.9913 42.9927 41.1358 43.1478L44.0762 46.0882C44.2296 46.2415 44.4376 46.3275 44.6544 46.3275C44.8713 46.3275 45.0793 46.2415 45.2327 46.0882C45.3092 46.0126 45.37 45.9226 45.4115 45.8233C45.4529 45.7241 45.4743 45.6176 45.4743 45.51C45.4743 45.4024 45.4529 45.2959 45.4115 45.1966C45.37 45.0974 45.3092 45.0073 45.2327 44.9317L42.2923 41.9913ZM51.8445 27.333H47.6876C47.4706 27.333 47.2624 27.4192 47.109 27.5727C46.9555 27.7261 46.8693 27.9343 46.8693 28.1513C46.8693 28.3683 46.9555 28.5764 47.109 28.7299C47.2624 28.8834 47.4706 28.9696 47.6876 28.9696H51.8445C52.0615 28.9696 52.2697 28.8834 52.4231 28.7299C52.5766 28.5764 52.6628 28.3683 52.6628 28.1513C52.6628 27.9343 52.5766 27.7261 52.4231 27.5727C52.2697 27.4192 52.0615 27.333 51.8445 27.333ZM44.0762 10.2143L41.1358 13.1547C40.9839 13.3089 40.8987 13.5166 40.8987 13.733C40.8987 13.9494 40.9839 14.1571 41.1358 14.3112C41.2901 14.4633 41.4975 14.5493 41.7141 14.5513C41.8215 14.5515 41.928 14.5304 42.0272 14.4892C42.1265 14.448 42.2166 14.3875 42.2923 14.3112L45.2327 11.3708C45.3773 11.2157 45.4559 11.0106 45.4522 10.7986C45.4485 10.5866 45.3626 10.3843 45.2127 10.2344C45.0627 10.0845 44.8605 9.99858 44.6485 9.99484C44.4365 9.9911 44.2313 10.0698 44.0762 10.2143ZM27.2958 8.57775C27.5128 8.57775 27.7209 8.49153 27.8744 8.33807C28.0278 8.18461 28.114 7.97648 28.114 7.75945V3.60253C28.114 3.38551 28.0278 3.17737 27.8744 3.02391C27.7209 2.87045 27.5128 2.78424 27.2958 2.78424C27.0787 2.78424 26.8706 2.87045 26.7171 3.02391C26.5637 3.17737 26.4775 3.38551 26.4775 3.60253V7.75945C26.4775 7.97648 26.5637 8.18461 26.7171 8.33807C26.8706 8.49153 27.0787 8.57775 27.2958 8.57775Z" fill="black"/>
</svg>
