<svg width="46" height="46" viewBox="0 0 46 46" fill="none" xmlns="http://www.w3.org/2000/svg">
<path d="M38.2574 3.48828H7.1557C6.03087 3.48828 4.95212 3.93512 4.15675 4.73048C3.36138 5.52585 2.91455 6.60461 2.91455 7.72943L2.91455 38.8312C2.91455 39.956 3.36138 41.0347 4.15675 41.8301C4.95212 42.6255 6.03087 43.0723 7.1557 43.0723H19.2827V29.6146H13.7162V23.2803H19.2827V18.4525C19.2827 12.9611 22.5519 9.92775 27.5591 9.92775C29.9572 9.92775 32.4647 10.3554 32.4647 10.3554V15.7452H29.7018C26.9795 15.7452 26.1304 17.4346 26.1304 19.1673V23.2803H32.2076L31.2357 29.6146H26.1304V43.0723H38.2574C39.3823 43.0723 40.461 42.6255 41.2564 41.8301C42.0517 41.0347 42.4986 39.956 42.4986 38.8312V7.72943C42.4986 6.60461 42.0517 5.52585 41.2564 4.73048C40.461 3.93512 39.3823 3.48828 38.2574 3.48828Z" fill="white"/>
</svg>
