<svg width="56" height="56" viewBox="0 0 56 56" fill="none" xmlns="http://www.w3.org/2000/svg">
<g clip-path="url(#clip0_217_1388)">
<path d="M28.2352 8.02661C21.6547 8.02661 16.3018 13.3796 16.3018 19.96C16.3018 23.6798 17.9861 27.1141 20.9251 29.3934L20.9558 29.4224C21.9021 30.2268 22.6622 31.2274 23.1832 32.3549C23.7043 33.4823 23.9738 34.7096 23.9732 35.9517V38.7126C23.0331 38.7126 22.2685 39.4771 22.2685 40.4173C22.2685 41.3575 23.0331 42.1221 23.9732 42.1221V44.2531C23.9732 44.2795 23.9835 44.3034 23.9886 44.3289C23.973 44.4259 23.9923 44.5253 24.0431 44.6094L27.8789 50.4542C27.9177 50.5133 27.9705 50.5618 28.0327 50.5954C28.0949 50.6289 28.1645 50.6465 28.2352 50.6465C28.3059 50.6465 28.3754 50.6289 28.4376 50.5954C28.4998 50.5618 28.5527 50.5133 28.5915 50.4542L32.4272 44.6094C32.4781 44.5253 32.4974 44.4259 32.4818 44.3289C32.4869 44.3034 32.4971 44.2803 32.4971 44.2531V42.1221C33.4373 42.1221 34.2019 41.3575 34.2019 40.4173C34.2019 39.4771 33.4373 38.7126 32.4971 38.7126V35.9517C32.4971 33.4346 33.5967 31.0547 35.5137 29.4224C35.5246 29.4131 35.5348 29.4031 35.5444 29.3925C36.9881 28.2812 38.1562 26.8522 38.9581 25.2164C39.7601 23.5805 40.1743 21.7819 40.1686 19.96C40.1686 13.3796 34.8156 8.02661 28.2352 8.02661ZM28.2352 49.4433L27.3461 48.0888H29.1242L28.2352 49.4433ZM29.6834 47.2364H26.787L25.1887 44.8012H31.2816L29.6834 47.2364ZM24.8256 43.8269V42.1221H26.5304V43.8269H24.8256ZM27.3828 43.8269V42.1221H29.0876V43.8269H27.3828ZM31.6447 43.8269H29.94V42.1221H31.6447V43.8269ZM33.3495 40.4173C33.3495 40.887 32.9676 41.2697 32.4971 41.2697H23.9732C23.7538 41.2599 23.5465 41.1658 23.3947 41.007C23.2429 40.8482 23.1581 40.637 23.1581 40.4173C23.1581 40.1976 23.2429 39.9864 23.3947 39.8276C23.5465 39.6688 23.7538 39.5748 23.9732 39.5649H32.4971C32.9676 39.5649 33.3495 39.9477 33.3495 40.4173ZM24.6688 23.2878C25.0933 23.1931 25.4376 23.0252 25.828 22.8206L26.1136 22.6732C26.2218 22.7243 26.3284 22.7797 26.4358 22.8343C26.9191 23.0832 27.4672 23.3662 28.2156 23.3687H28.2267C28.9708 23.3687 29.5172 23.0857 29.9988 22.836C30.1104 22.778 30.2204 22.7209 30.3329 22.6672C30.4352 22.7132 30.5392 22.7627 30.6449 22.813C30.9995 22.9817 31.3865 23.1565 31.7947 23.2647C30.0438 25.5063 29.0913 28.2683 29.0884 31.1127V38.7117H27.3836V31.1451C27.3796 28.2966 26.4241 25.5311 24.6688 23.2878ZM34.9707 28.7584C34.948 28.776 34.9271 28.796 34.9085 28.818C33.9242 29.6698 33.1273 30.7165 32.5683 31.892C32.0093 33.0676 31.7003 34.3463 31.6609 35.6474C31.6558 35.6746 31.6447 35.7002 31.6447 35.7292V38.7126H29.94V31.1135C29.94 28.229 30.9824 25.4451 32.8747 23.2741C32.9115 23.2319 32.9397 23.1828 32.9575 23.1297C32.9753 23.0766 32.9825 23.0205 32.9786 22.9646C32.9747 22.9087 32.9599 22.8541 32.9349 22.8039C32.9099 22.7538 32.8753 22.7091 32.833 22.6723C32.8168 22.6587 32.7972 22.6536 32.7801 22.6425C32.7406 22.6027 32.6935 22.5712 32.6417 22.5497C32.59 22.5282 32.5344 22.5172 32.4784 22.5172C32.0044 22.5172 31.499 22.2768 31.0097 22.0441C30.8333 21.9606 30.6611 21.8788 30.494 21.8089C30.4421 21.7869 30.3863 21.7756 30.3299 21.7756C30.2736 21.7756 30.2178 21.7869 30.1658 21.8089C29.9749 21.8881 29.7908 21.9836 29.605 22.0799C29.1711 22.3049 28.762 22.5172 28.2258 22.5172H28.2181C27.6743 22.5155 27.2626 22.3024 26.8253 22.0774C26.6432 21.9805 26.4572 21.8909 26.2679 21.8089C26.2121 21.7856 26.152 21.7745 26.0916 21.7763C26.0312 21.7781 25.9719 21.7926 25.9175 21.8191C25.7394 21.906 25.58 21.9887 25.4334 22.0663C24.8947 22.3484 24.5699 22.518 23.9553 22.518C23.8652 22.5185 23.7776 22.5479 23.7055 22.6019C23.6334 22.6559 23.5805 22.7317 23.5547 22.8181C23.5093 22.8942 23.4889 22.9826 23.4966 23.0709C23.5042 23.1592 23.5395 23.2428 23.5973 23.3099C25.4893 25.4823 26.5311 28.266 26.5304 31.1468V38.7134H24.8256V35.73C24.8256 35.7011 24.8145 35.6755 24.8094 35.6482C24.7697 34.3475 24.4607 33.0692 23.9019 31.894C23.343 30.7188 22.5465 29.6723 21.5627 28.8206C21.544 28.7981 21.5229 28.7778 21.4996 28.7601C20.144 27.7295 19.0461 26.3984 18.292 24.8715C17.538 23.3447 17.1485 21.6637 17.1541 19.9609C17.1541 13.851 22.1253 8.87985 28.2352 8.87985C34.3451 8.87985 39.3162 13.851 39.3162 19.9609C39.3219 21.6635 38.9323 23.3442 38.1783 24.8708C37.4243 26.3973 36.3263 27.7281 34.9707 28.7584Z" fill="black"/>
<path d="M45.2836 20.2047C45.2836 18.3056 43.4152 16.5463 40.113 15.2788C41.5621 12.0252 41.6379 9.49872 40.2895 8.15024C38.8089 6.66965 35.8281 6.91258 32.1151 8.81596C32.0145 8.86761 31.9385 8.95712 31.9039 9.06478C31.8693 9.17244 31.8789 9.28944 31.9305 9.39004C31.9822 9.49064 32.0717 9.5666 32.1793 9.60121C32.287 9.63582 32.404 9.62624 32.5046 9.57458C35.817 7.87663 38.5046 7.56891 39.6868 8.75288C40.7608 9.82689 40.6117 12.0925 39.3101 14.9906C39.1618 14.9404 39.016 14.8901 38.8626 14.8415C38.8088 14.8233 38.7519 14.8161 38.6953 14.8202C38.6387 14.8243 38.5835 14.8397 38.5329 14.8654C38.4823 14.8912 38.4374 14.9267 38.4007 14.9701C38.3641 15.0134 38.3365 15.0636 38.3195 15.1178C38.3025 15.172 38.2965 15.229 38.3019 15.2855C38.3073 15.342 38.3238 15.3968 38.3507 15.4468C38.3775 15.4969 38.4141 15.541 38.4582 15.5767C38.5024 15.6124 38.5532 15.6389 38.6077 15.6547C38.7219 15.6905 38.8302 15.728 38.941 15.7655C37.5371 18.5664 35.2553 21.6214 32.4535 24.4232C31.8774 24.9963 31.285 25.5529 30.6771 26.0921C29.8767 26.139 29.0644 26.1706 28.235 26.1706C27.4065 26.1706 26.595 26.139 25.7955 26.0921C25.1859 25.5532 24.5921 24.9966 24.0148 24.4232C21.1858 21.5941 18.9184 18.5434 17.529 15.7646C17.639 15.728 17.7464 15.6905 17.8597 15.6547C17.9143 15.6389 17.9651 15.6124 18.0092 15.5767C18.0533 15.541 18.0899 15.4969 18.1168 15.4468C18.1436 15.3968 18.1602 15.342 18.1655 15.2855C18.1709 15.229 18.1649 15.172 18.1479 15.1178C18.131 15.0636 18.1033 15.0134 18.0667 14.9701C18.03 14.9267 17.9851 14.8912 17.9345 14.8654C17.8839 14.8397 17.8287 14.8243 17.7721 14.8202C17.7155 14.8161 17.6586 14.8233 17.6049 14.8415C17.4497 14.8901 17.3023 14.9412 17.1523 14.9924C16.957 14.5606 16.7804 14.1206 16.6229 13.6737C15.8294 11.397 15.8865 9.64874 16.7832 8.75288C17.9569 7.57829 20.5038 7.84253 23.771 9.47656C23.8722 9.52708 23.9893 9.53535 24.0966 9.49954C24.1497 9.48181 24.1988 9.4538 24.2411 9.41709C24.2833 9.38039 24.318 9.33571 24.343 9.28562C24.368 9.23553 24.3829 9.181 24.3869 9.12515C24.3908 9.0693 24.3837 9.01321 24.366 8.9601C24.3483 8.90699 24.3202 8.85789 24.2835 8.81561C24.2468 8.77333 24.2022 8.73869 24.1521 8.71367C20.48 6.87763 17.6518 6.67817 16.1797 8.15024C15.023 9.30693 14.8977 11.3143 15.8166 13.955C15.9674 14.388 16.1456 14.8313 16.3459 15.283C13.0506 16.5497 11.1864 18.3081 11.1864 20.2047C11.1864 22.1601 13.1529 23.8955 16.345 25.1281C14.9062 28.3578 14.8329 30.9132 16.1788 32.2592C16.8249 32.9053 17.7421 33.2275 18.8826 33.2275C20.1578 33.2275 21.7108 32.8243 23.4727 32.0205C25.0019 31.3224 26.6138 30.3558 28.2299 29.1778C31.7716 31.7639 35.1453 33.2215 37.5848 33.2215C38.7091 33.2215 39.6365 32.9112 40.2886 32.2592C41.6345 30.9132 41.5612 28.3578 40.1224 25.1281C43.3171 23.8955 45.2836 22.1601 45.2836 20.2047ZM28.2358 27.0238C28.7072 27.0238 29.1692 27.011 29.6304 26.9965C29.1684 27.3809 28.7055 27.7492 28.2418 28.1004C27.7683 27.7435 27.3033 27.3755 26.8473 26.9965C27.3067 27.011 27.7662 27.0238 28.2358 27.0238ZM12.0405 20.2047C12.0405 18.6866 13.77 17.1728 16.7218 16.051C18.1513 18.9389 20.4919 22.1047 23.4139 25.0258C23.7429 25.3548 24.0745 25.6753 24.4061 25.9873C21.831 25.7469 19.4835 25.2738 17.5384 24.632C17.627 24.4556 17.7029 24.2851 17.7992 24.1052C17.8278 24.0558 17.8462 24.0011 17.8532 23.9444C17.8603 23.8877 17.8558 23.8301 17.8402 23.7752C17.8246 23.7202 17.798 23.669 17.7622 23.6245C17.7263 23.58 17.6819 23.5432 17.6316 23.5162C17.5812 23.4892 17.5259 23.4726 17.469 23.4674C17.4121 23.4622 17.3548 23.4685 17.3004 23.486C17.2459 23.5034 17.1956 23.5316 17.1523 23.5688C17.109 23.6061 17.0736 23.6517 17.0483 23.7029C16.9289 23.9254 16.836 24.1359 16.7286 24.3524C13.8484 23.2699 12.0405 21.7995 12.0405 20.2047ZM23.1198 31.2448C20.1757 32.5882 17.8649 32.7391 16.7832 31.6565C15.7075 30.58 15.8575 28.2981 17.1514 25.4196C19.4494 26.1978 22.287 26.7272 25.4392 26.9275C26.1119 27.5206 26.8045 28.0909 27.5156 28.6374C26.0196 29.7105 24.5322 30.6004 23.1198 31.2448ZM39.6877 31.6565C37.9957 33.3485 33.6272 31.9702 28.9553 28.628C29.6632 28.0848 30.3526 27.5179 31.0223 26.9283C34.1778 26.7289 37.0197 26.1987 39.3194 25.4196C40.6117 28.2981 40.7634 30.58 39.6877 31.6565ZM39.7431 24.3533C39.6357 24.1359 39.5428 23.9254 39.4234 23.7029C39.368 23.6071 39.2776 23.5366 39.1712 23.5064C39.0648 23.4761 38.9507 23.4883 38.8532 23.5406C38.7557 23.5928 38.6823 23.681 38.6486 23.7863C38.6149 23.8917 38.6234 24.0061 38.6725 24.1052C38.7688 24.2851 38.8447 24.4556 38.9333 24.632C36.9856 25.2738 34.6364 25.7469 32.0588 25.9873C32.3938 25.6728 32.7279 25.354 33.057 25.025C35.9525 22.1294 38.3111 18.9585 39.7516 16.051C42.7026 17.1728 44.4304 18.6857 44.4304 20.203C44.4312 21.7995 42.6233 23.2699 39.7431 24.3533Z" fill="black"/>
<path d="M17.1648 9.35556C17.871 9.35556 18.4434 8.78312 18.4434 8.07698C18.4434 7.37084 17.871 6.7984 17.1648 6.7984C16.4587 6.7984 15.8862 7.37084 15.8862 8.07698C15.8862 8.78312 16.4587 9.35556 17.1648 9.35556Z" fill="#F1AD00"/>
<path d="M17.1645 9.78174C16.2243 9.78174 15.4597 9.01715 15.4597 8.07697C15.4597 7.13678 16.2243 6.37219 17.1645 6.37219C18.1047 6.37219 18.8693 7.13678 18.8693 8.07697C18.8693 9.01715 18.1038 9.78174 17.1645 9.78174ZM17.1645 7.22458C16.945 7.2344 16.7378 7.32849 16.586 7.48727C16.4341 7.64605 16.3494 7.85728 16.3494 8.07697C16.3494 8.29666 16.4341 8.50789 16.586 8.66666C16.7378 8.82544 16.945 8.91954 17.1645 8.92935C17.384 8.91954 17.5912 8.82544 17.743 8.66666C17.8949 8.50789 17.9796 8.29666 17.9796 8.07697C17.9796 7.85728 17.8949 7.64605 17.743 7.48727C17.5912 7.32849 17.384 7.2344 17.1645 7.22458Z" fill="#F1AD00"/>
<path d="M43.5889 23.8462C44.295 23.8462 44.8675 23.2737 44.8675 22.5676C44.8675 21.8614 44.295 21.289 43.5889 21.289C42.8827 21.289 42.3103 21.8614 42.3103 22.5676C42.3103 23.2737 42.8827 23.8462 43.5889 23.8462Z" fill="#F1AD00"/>
<path d="M43.5886 24.2723C42.6484 24.2723 41.8838 23.5078 41.8838 22.5676C41.8838 21.6274 42.6484 20.8628 43.5886 20.8628C44.5287 20.8628 45.2933 21.6274 45.2933 22.5676C45.2933 23.5078 44.5279 24.2723 43.5886 24.2723ZM43.5886 21.7152C43.3691 21.725 43.1619 21.8191 43.01 21.9779C42.8582 22.1366 42.7735 22.3479 42.7735 22.5676C42.7735 22.7873 42.8582 22.9985 43.01 23.1573C43.1619 23.316 43.3691 23.4101 43.5886 23.42C43.808 23.4101 44.0153 23.316 44.1671 23.1573C44.3189 22.9985 44.4037 22.7873 44.4037 22.5676C44.4037 22.3479 44.3189 22.1366 44.1671 21.9779C44.0153 21.8191 43.808 21.725 43.5886 21.7152Z" fill="#F1AD00"/>
<path d="M17.1648 33.2224C17.871 33.2224 18.4434 32.6499 18.4434 31.9438C18.4434 31.2377 17.871 30.6652 17.1648 30.6652C16.4587 30.6652 15.8862 31.2377 15.8862 31.9438C15.8862 32.6499 16.4587 33.2224 17.1648 33.2224Z" fill="#F1AD00"/>
<path d="M17.1645 33.6486C16.2243 33.6486 15.4597 32.884 15.4597 31.9438C15.4597 31.0037 16.2243 30.2391 17.1645 30.2391C18.1047 30.2391 18.8693 31.0037 18.8693 31.9438C18.8693 32.884 18.1038 33.6486 17.1645 33.6486ZM17.1645 31.0915C16.945 31.1013 16.7378 31.1954 16.586 31.3542C16.4341 31.5129 16.3494 31.7242 16.3494 31.9438C16.3494 32.1635 16.4341 32.3748 16.586 32.5335C16.7378 32.6923 16.945 32.7864 17.1645 32.7962C17.384 32.7864 17.5912 32.6923 17.743 32.5335C17.8949 32.3748 17.9796 32.1635 17.9796 31.9438C17.9796 31.7242 17.8949 31.5129 17.743 31.3542C17.5912 31.1954 17.384 31.1013 17.1645 31.0915Z" fill="#F1AD00"/>
<path d="M28.2353 7.17423C28.4707 7.17423 28.6615 6.98341 28.6615 6.74803C28.6615 6.51265 28.4707 6.32184 28.2353 6.32184C27.9999 6.32184 27.8091 6.51265 27.8091 6.74803C27.8091 6.98341 27.9999 7.17423 28.2353 7.17423Z" fill="#F1AD00"/>
<path d="M41.4474 20.3863C41.6828 20.3863 41.8736 20.1954 41.8736 19.9601C41.8736 19.7247 41.6828 19.5339 41.4474 19.5339C41.2121 19.5339 41.0212 19.7247 41.0212 19.9601C41.0212 20.1954 41.2121 20.3863 41.4474 20.3863Z" fill="#F1AD00"/>
<path d="M15.0235 20.3863C15.2589 20.3863 15.4497 20.1954 15.4497 19.9601C15.4497 19.7247 15.2589 19.5339 15.0235 19.5339C14.7881 19.5339 14.5973 19.7247 14.5973 19.9601C14.5973 20.1954 14.7881 20.3863 15.0235 20.3863Z" fill="#F1AD00"/>
<path d="M37.8798 10.9206C38.0462 10.7541 38.0462 10.4843 37.8798 10.3178C37.7134 10.1514 37.4435 10.1514 37.2771 10.3178C37.1106 10.4843 37.1106 10.7541 37.2771 10.9206C37.4435 11.087 37.7134 11.087 37.8798 10.9206Z" fill="#F1AD00"/>
<path d="M19.1939 29.6018C19.3603 29.4353 19.3603 29.1655 19.1939 28.999C19.0274 28.8326 18.7576 28.8326 18.5912 28.999C18.4247 29.1655 18.4247 29.4353 18.5912 29.6018C18.7576 29.7682 19.0275 29.7682 19.1939 29.6018Z" fill="#F1AD00"/>
<path d="M37.879 29.6035C38.0454 29.4371 38.0454 29.1672 37.8789 29.0008C37.7125 28.8344 37.4426 28.8344 37.2762 29.0008C37.1098 29.1673 37.1098 29.4371 37.2762 29.6035C37.4427 29.77 37.7125 29.77 37.879 29.6035Z" fill="#F1AD00"/>
<path d="M19.1947 10.9193C19.3612 10.7528 19.3612 10.483 19.1947 10.3165C19.0283 10.1501 18.7584 10.1501 18.592 10.3166C18.4256 10.483 18.4256 10.7528 18.592 10.9193C18.7585 11.0857 19.0283 11.0857 19.1947 10.9193Z" fill="#F1AD00"/>
<path d="M23.3419 8.14837C23.5593 8.0583 23.6626 7.809 23.5725 7.59153C23.4825 7.37406 23.2332 7.27078 23.0157 7.36085C22.7982 7.45091 22.695 7.70022 22.785 7.91769C22.8751 8.13515 23.1244 8.23843 23.3419 8.14837Z" fill="#F1AD00"/>
<path d="M33.685 7.917C33.7751 7.69954 33.6718 7.45023 33.4543 7.36015C33.2369 7.27008 32.9875 7.37334 32.8975 7.59081C32.8074 7.80827 32.9107 8.05758 33.1281 8.14766C33.3456 8.23773 33.5949 8.13446 33.685 7.917Z" fill="#F1AD00"/>
<path d="M25.7415 7.41941C25.9723 7.3735 26.1223 7.14914 26.0764 6.91828C26.0305 6.68742 25.8061 6.53748 25.5752 6.58339C25.3444 6.62929 25.1944 6.85365 25.2403 7.08451C25.2862 7.31538 25.5106 7.46531 25.7415 7.41941Z" fill="#F1AD00"/>
<path d="M41.2771 17.7995C41.508 17.7536 41.6579 17.5292 41.612 17.2983C41.5661 17.0675 41.3417 16.9175 41.1109 16.9635C40.88 17.0094 40.7301 17.2337 40.776 17.4646C40.8219 17.6954 41.0463 17.8454 41.2771 17.7995Z" fill="#F1AD00"/>
<path d="M15.3601 22.9565C15.591 22.9106 15.7409 22.6863 15.695 22.4554C15.6491 22.2245 15.4247 22.0746 15.1939 22.1205C14.963 22.1664 14.8131 22.3908 14.859 22.6216C14.9049 22.8525 15.1293 23.0024 15.3601 22.9565Z" fill="#F1AD00"/>
<path d="M35.9299 9.21319C36.0607 9.01749 36.008 8.75282 35.8123 8.62204C35.6166 8.49125 35.352 8.54388 35.2212 8.73958C35.0904 8.93528 35.143 9.19995 35.3387 9.33074C35.5344 9.46152 35.7991 9.4089 35.9299 9.21319Z" fill="#F1AD00"/>
<path d="M21.2489 31.1807C21.3796 30.985 21.327 30.7203 21.1312 30.5896C20.9355 30.4588 20.6708 30.5115 20.5401 30.7072C20.4093 30.9029 20.462 31.1676 20.6577 31.2983C20.8535 31.4291 21.1181 31.3764 21.2489 31.1807Z" fill="#F1AD00"/>
<path d="M39.5731 27.5358C39.7038 27.3401 39.6512 27.0754 39.4555 26.9447C39.2597 26.8139 38.9951 26.8666 38.8643 27.0623C38.7336 27.258 38.7862 27.5227 38.982 27.6534C39.1777 27.7842 39.4423 27.7315 39.5731 27.5358Z" fill="#F1AD00"/>
<path d="M17.6048 12.8559C17.7356 12.6602 17.6829 12.3955 17.4872 12.2647C17.2915 12.134 17.0269 12.1866 16.8961 12.3823C16.7653 12.578 16.818 12.8427 17.0137 12.9735C17.2094 13.1042 17.474 13.0516 17.6048 12.8559Z" fill="#F1AD00"/>
<path d="M21.1313 9.32889C21.327 9.19812 21.3796 8.93345 21.2489 8.73774C21.1181 8.54203 20.8534 8.48938 20.6577 8.62015C20.462 8.75092 20.4094 9.01559 20.5401 9.2113C20.6709 9.40701 20.9356 9.45966 21.1313 9.32889Z" fill="#F1AD00"/>
<path d="M35.8114 31.3018C36.0071 31.171 36.0598 30.9063 35.929 30.7106C35.7983 30.5149 35.5336 30.4623 35.3379 30.593C35.1422 30.7238 35.0895 30.9884 35.2203 31.1842C35.351 31.3799 35.6157 31.4325 35.8114 31.3018Z" fill="#F1AD00"/>
<path d="M39.4567 12.9766C39.6524 12.8458 39.7051 12.5812 39.5743 12.3854C39.4435 12.1897 39.1789 12.1371 38.9832 12.2678C38.7874 12.3986 38.7348 12.6632 38.8655 12.859C38.9963 13.0547 39.261 13.1073 39.4567 12.9766Z" fill="#F1AD00"/>
<path d="M17.486 27.6543C17.6817 27.5235 17.7344 27.2589 17.6036 27.0632C17.4728 26.8675 17.2081 26.8148 17.0124 26.9456C16.8167 27.0764 16.7641 27.3411 16.8949 27.5368C17.0257 27.7325 17.2903 27.7851 17.486 27.6543Z" fill="#F1AD00"/>
<path d="M31.2303 7.08449C31.2762 6.85363 31.1263 6.62925 30.8955 6.58333C30.6646 6.5374 30.4402 6.68732 30.3943 6.91818C30.3484 7.14904 30.4983 7.37341 30.7292 7.41934C30.96 7.46526 31.1844 7.31534 31.2303 7.08449Z" fill="#F1AD00"/>
<path d="M41.6129 22.621C41.6588 22.3902 41.5089 22.1658 41.278 22.1199C41.0472 22.074 40.8228 22.2239 40.7769 22.4547C40.731 22.6856 40.8809 22.91 41.1117 22.9559C41.3426 23.0018 41.567 22.8519 41.6129 22.621Z" fill="#F1AD00"/>
<path d="M15.6942 17.464C15.7401 17.2331 15.5902 17.0088 15.3593 16.9628C15.1285 16.9169 14.9041 17.0668 14.8582 17.2977C14.8123 17.5286 14.9622 17.7529 15.193 17.7989C15.4239 17.8448 15.6483 17.6949 15.6942 17.464Z" fill="#F1AD00"/>
</g>
<defs>
<clipPath id="clip0_217_1388">
<rect width="54.5528" height="54.5528" fill="white" transform="translate(0.964111 0.994385)"/>
</clipPath>
</defs>
</svg>
