<svg width="47" height="46" viewBox="0 0 47 46" fill="none" xmlns="http://www.w3.org/2000/svg">
<path d="M40.4739 3.48828H6.53588C4.98079 3.48828 3.71729 4.76946 3.71729 6.34222V40.2184C3.71729 41.7911 4.98079 43.0723 6.53588 43.0723H40.4739C42.029 43.0723 43.3013 41.7911 43.3013 40.2184V6.34222C43.3013 4.76946 42.029 3.48828 40.4739 3.48828ZM15.6809 37.4174H9.81393V18.5267H15.6897V37.4174H15.6809ZM12.7474 15.9466C10.8654 15.9466 9.34564 14.4181 9.34564 12.5449C9.34564 10.6717 10.8654 9.14314 12.7474 9.14314C14.6206 9.14314 16.1491 10.6717 16.1491 12.5449C16.1491 14.4269 14.6294 15.9466 12.7474 15.9466ZM37.673 37.4174H31.806V28.2283C31.806 26.037 31.7619 23.2184 28.7577 23.2184C25.7006 23.2184 25.2323 25.6041 25.2323 28.0693V37.4174H19.3653V18.5267H24.9937V21.1067H25.0732C25.8596 19.6223 27.777 18.0584 30.6309 18.0584C36.5685 18.0584 37.673 21.9726 37.673 27.062V37.4174Z" fill="white"/>
</svg>
