<svg width="34" height="34" viewBox="0 0 34 34" fill="none" xmlns="http://www.w3.org/2000/svg">
<path d="M28.0978 2.73438H5.22884C4.40177 2.73438 3.60857 3.06293 3.02374 3.64776C2.43891 4.23259 2.11035 5.02579 2.11035 5.85286L2.11035 28.7218C2.11035 29.5489 2.43891 30.3421 3.02374 30.9269C3.60857 31.5117 4.40177 31.8403 5.22884 31.8403H28.0978C28.9248 31.8403 29.718 31.5117 30.3029 30.9269C30.8877 30.3421 31.2163 29.5489 31.2163 28.7218V5.85286C31.2163 5.02579 30.8877 4.23259 30.3029 3.64776C29.718 3.06293 28.9248 2.73438 28.0978 2.73438ZM27.0329 22.7038L26.0584 26.9267C26.0089 27.1414 25.8881 27.333 25.7157 27.4702C25.5433 27.6074 25.3295 27.6822 25.1092 27.6823C14.7142 27.6823 6.26834 19.2552 6.26834 8.84142C6.27607 8.62316 6.35365 8.41314 6.48967 8.24228C6.62569 8.07141 6.81296 7.94871 7.02392 7.89223L11.2469 6.9177C11.3189 6.90247 11.3922 6.89398 11.4658 6.89236C11.6543 6.90187 11.8367 6.96166 11.9943 7.06551C12.1518 7.16936 12.2787 7.31348 12.3617 7.48292L14.3108 12.0307C14.3585 12.1533 14.3851 12.2832 14.3894 12.4147C14.3735 12.7032 14.2453 12.974 14.0321 13.169L11.5704 15.183C13.062 18.3443 15.6063 20.8887 18.7676 22.3802L20.7817 19.9186C20.9767 19.7054 21.2475 19.5771 21.5359 19.5612C21.6675 19.5655 21.7973 19.592 21.9199 19.6398L26.4677 21.5889C26.6372 21.6718 26.7814 21.7987 26.8853 21.9562C26.9892 22.1138 27.0489 22.2963 27.0583 22.4848C27.057 22.5584 27.0485 22.6318 27.0329 22.7038Z" fill="white"/>
</svg>
