<svg width="56" height="56" viewBox="0 0 56 56" fill="none" xmlns="http://www.w3.org/2000/svg">
<path d="M16.4225 51.4359H9.52725C8.30809 51.4359 7.13887 51.0714 6.2768 50.4227C5.41473 49.7739 4.93042 48.894 4.93042 47.9765V35.8685C4.93042 34.951 5.41473 34.0711 6.2768 33.4223C7.13887 32.7735 8.30809 32.4091 9.52725 32.4091H16.4225M32.5114 28.9497V22.0308C32.5114 20.6546 31.7849 19.3347 30.4918 18.3615C29.1987 17.3884 27.4449 16.8417 25.6162 16.8417L16.4225 32.4091V51.4359H42.3486C43.4572 51.4453 44.533 51.1529 45.3777 50.6126C46.2224 50.0722 46.7792 49.3203 46.9454 48.4954L50.1173 32.928C50.2173 32.4322 50.1728 31.9259 49.987 31.4443C49.8012 30.9627 49.4785 30.5173 49.0413 30.1389C48.604 29.7604 48.0627 29.4581 47.4547 29.2527C46.8468 29.0474 46.1868 28.944 45.5204 28.9497H32.5114Z" stroke="black" stroke-width="2.66111" stroke-linecap="round" stroke-linejoin="round"/>
</svg>
