<svg width="46" height="46" viewBox="0 0 46 46" fill="none" xmlns="http://www.w3.org/2000/svg">
<path d="M38.8629 3.48828H7.76117C5.4197 3.48828 3.52002 5.38796 3.52002 7.72943V38.8312C3.52002 41.1726 5.4197 43.0723 7.76117 43.0723H38.8629C41.2044 43.0723 43.104 41.1726 43.104 38.8312V7.72943C43.104 5.38796 41.2044 3.48828 38.8629 3.48828ZM34.5422 17.5194C34.5599 17.7668 34.5599 18.023 34.5599 18.2704C34.5599 25.931 28.7283 34.7579 18.0725 34.7579C14.7856 34.7579 11.7372 33.8036 9.17488 32.1602C9.64317 32.2132 10.0938 32.2309 10.5709 32.2309C13.2835 32.2309 15.7752 31.312 17.7632 29.7569C15.2185 29.7039 13.0803 28.0339 12.3469 25.7366C13.2393 25.8692 14.0434 25.8692 14.9623 25.6306C12.3116 25.0916 10.3235 22.759 10.3235 19.9404V19.8697C11.0922 20.3027 11.9935 20.5677 12.9389 20.6031C12.1441 20.0744 11.4925 19.3571 11.0423 18.5153C10.5921 17.6735 10.3573 16.7334 10.3589 15.7788C10.3589 14.7008 10.6416 13.7112 11.1452 12.8541C13.9992 16.3708 18.2845 18.6681 23.0911 18.9155C22.2694 14.9836 25.2117 11.7939 28.746 11.7939C30.416 11.7939 31.918 12.4919 32.9783 13.6229C34.286 13.3755 35.5407 12.8895 36.654 12.2268C36.221 13.5698 35.3109 14.7008 34.1093 15.4165C35.2756 15.2928 36.4066 14.9659 37.4492 14.5153C36.6628 15.6727 35.6732 16.6977 34.5422 17.5194Z" fill="white"/>
</svg>
