<svg width="55" height="56" viewBox="0 0 55 56" fill="none" xmlns="http://www.w3.org/2000/svg">
<g clip-path="url(#clip0_217_1431)">
<path d="M27.6264 27.9931C35.1593 27.9931 41.2646 21.8878 41.2646 14.3549C41.2646 6.8219 35.1593 0.716675 27.6264 0.716675C20.0934 0.716675 13.9882 6.8219 13.9882 14.3549C13.9882 21.8878 20.0934 27.9931 27.6264 27.9931ZM37.8337 31.4665L32.7407 51.8599L29.3311 37.3693L32.7407 31.4026H22.512L25.9216 37.3693L22.512 51.8599L17.419 31.4665C9.82212 31.8288 3.75952 38.0406 3.75952 45.7227V50.1551C3.75952 52.9787 6.05031 55.2695 8.87384 55.2695H46.3789C49.2024 55.2695 51.4932 52.9787 51.4932 50.1551V45.7227C51.4932 38.0406 45.4306 31.8288 37.8337 31.4665Z" fill="black"/>
</g>
<defs>
<clipPath id="clip0_217_1431">
<rect width="54.5528" height="54.5528" fill="white" transform="translate(0.350098 0.716797)"/>
</clipPath>
</defs>
</svg>
